<?xml version="1.0" encoding="UTF-8"?>
<!DOCTYPE svg PUBLIC "-//W3C//DTD SVG 1.1//EN"
    "http://www.w3.org/Graphics/SVG/1.1/DTD/svg11.dtd"><svg xmlns="http://www.w3.org/2000/svg" height="600.0000" stroke-opacity="1" viewBox="0 0 800 600" font-size="1" width="800.0000" xmlns:xlink="http://www.w3.org/1999/xlink" stroke="rgb(0,0,0)" version="1.1"><defs></defs><g stroke-linejoin="bevel" stroke-opacity="0.0" fill-opacity="1.0" stroke="rgb(0,0,0)" stroke-width="0.0" fill="rgb(255,255,255)" stroke-linecap="butt" stroke-miterlimit="10.0"><path d="M 0.0000,0.0000 v 600.0000 h 800.0000 v -600.0000 Z"/></g><g stroke-linejoin="bevel" stroke-opacity="0.0" fill-opacity="1.0" stroke="rgb(0,0,0)" stroke-width="0.0" fill="rgb(0,0,0)" stroke-linecap="butt" stroke-miterlimit="10.0"><path d="M 305.2259,14.1016 ZM 306.4117,4.0606 h 2.4025 l 1.6786,4.5123 l 0.6006,1.7556 h 0.0616 l 0.6006,-1.7556 l 1.6324,-4.5123 h 2.3871 v 10.0411 h -2.1099 v -3.6807 c 0.0000,-0.3696 0.0308,-0.8162 0.0308 -0.8162c 0.0308,-0.4466 0.0770,-0.9009 0.0770 -0.9009c 0.0462,-0.4543 0.0924,-0.8932 0.0924 -0.8932c 0.0462,-0.4389 0.0924,-0.8085 0.0924 -0.8085h -0.0616 l -0.8316,2.3255 l -1.5400,3.8963 h -0.9086 l -1.5400,-3.8963 l -0.8008,-2.3255 h -0.0616 c 0.0462,0.3696 0.0924,0.8085 0.0924 0.8085c 0.0462,0.4389 0.0847,0.8932 0.0847 0.8932c 0.0385,0.4543 0.0693,0.9009 0.0693 0.9009c 0.0308,0.4466 0.0308,0.8162 0.0308 0.8162v 3.6807 h -2.0791 v -10.0411 ZM 316.9610,14.1016 ZM 318.1468,4.0606 h 2.8337 c 1.1550,0.0000 2.0791,0.2926 2.0791 0.2926c 0.9240,0.2926 1.5862,0.9009 1.5862 0.9009c 0.6622,0.6083 1.0164,1.5477 1.0164 1.5477c 0.3542,0.9394 0.3542,2.2331 0.3542 2.2331c 0.0000,1.2936 -0.3542,2.2485 -0.3542 2.2485c -0.3542,0.9548 -1.0010,1.5785 -1.0010 1.5785c -0.6468,0.6237 -1.5477,0.9317 -1.5477 0.9317c -0.9009,0.3080 -2.0098,0.3080 -2.0098 0.3080h -2.9569 v -10.0411 ZM 318.1468,4.0606 ZM 320.8419,12.2690 c 0.6468,0.0000 1.1704,-0.1694 1.1704 -0.1694c 0.5236,-0.1694 0.8932,-0.5467 0.8932 -0.5467c 0.3696,-0.3773 0.5775,-0.9933 0.5775 -0.9933c 0.2079,-0.6160 0.2079,-1.5246 0.2079 -1.5246c 0.0000,-0.8932 -0.2079,-1.5015 -0.2079 -1.5015c -0.2079,-0.6083 -0.5775,-0.9702 -0.5775 -0.9702c -0.3696,-0.3619 -0.8932,-0.5159 -0.8932 -0.5159c -0.5236,-0.1540 -1.1704,-0.1540 -1.1704 -0.1540h -0.4312 v 6.3758 h 0.4312 ZM 326.5862,14.1016 ZM 326.4784,4.0606 h 2.4025 l 1.2012,4.6817 c 0.2310,0.8316 0.4081,1.6093 0.4081 1.6093c 0.1771,0.7777 0.4081,1.6093 0.4081 1.6093h 0.0616 c 0.2156,-0.8316 0.4004,-1.6093 0.4004 -1.6093c 0.1848,-0.7777 0.4004,-1.6093 0.4004 -1.6093l 1.1858,-4.6817 h 2.3101 l -3.0185,10.0411 h -2.7259 ZM 335.1489,14.1016 ZM 338.5986,8.6807 h 1.1704 c 0.8932,0.0000 1.3629,-0.3773 1.3629 -0.3773c 0.4697,-0.3773 0.4697,-1.1165 0.4697 -1.1165c 0.0000,-0.7392 -0.4697,-1.0318 -0.4697 -1.0318c -0.4697,-0.2926 -1.3629,-0.2926 -1.3629 -0.2926h -1.1704 v 2.8183 ZM 338.5986,8.6807 ZM 341.7710,14.1016 l -1.9251,-3.6191 h -1.2474 v 3.6191 h -2.2639 v -10.0411 h 3.6191 c 0.8008,0.0000 1.5015,0.1540 1.5015 0.1540c 0.7007,0.1540 1.2243,0.5159 1.2243 0.5159c 0.5236,0.3619 0.8316,0.9625 0.8316 0.9625c 0.3080,0.6006 0.3080,1.4938 0.3080 1.4938c 0.0000,1.1088 -0.4851,1.8249 -0.4851 1.8249c -0.4851,0.7161 -1.3013,1.0703 -1.3013 1.0703l 2.2793,4.0195 h -2.5411 ZM 344.6355,14.1016 ZM 345.8214,4.0606 h 3.6653 c 0.8162,0.0000 1.5323,0.1617 1.5323 0.1617c 0.7161,0.1617 1.2474,0.5390 1.2474 0.5390c 0.5313,0.3773 0.8393,1.0010 0.8393 1.0010c 0.3080,0.6237 0.3080,1.5323 0.3080 1.5323c 0.0000,0.8778 -0.3157,1.5246 -0.3157 1.5246c -0.3157,0.6468 -0.8547,1.0626 -0.8547 1.0626c -0.5390,0.4158 -1.2474,0.6160 -1.2474 0.6160c -0.7084,0.2002 -1.5092,0.2002 -1.5092 0.2002h -1.4014 v 3.4035 h -2.2639 v -10.0411 ZM 345.8214,4.0606 ZM 349.3480,8.8963 c 1.8480,0.0000 1.8480,-1.6016 1.8480 -1.6016c 0.0000,-0.7854 -0.4697,-1.1088 -0.4697 -1.1088c -0.4697,-0.3234 -1.3783,-0.3234 -1.3783 -0.3234h -1.2628 v 3.0339 h 1.2628 ZM 357.1715,14.1016 ZM 357.8337,9.4045 h 3.7885 v 1.6016 h -3.7885 v -1.6016 ZM 365.4877,14.1016 ZM 366.6735,4.0606 h 2.8337 c 1.1550,0.0000 2.0791,0.2926 2.0791 0.2926c 0.9240,0.2926 1.5862,0.9009 1.5862 0.9009c 0.6622,0.6083 1.0164,1.5477 1.0164 1.5477c 0.3542,0.9394 0.3542,2.2331 0.3542 2.2331c 0.0000,1.2936 -0.3542,2.2485 -0.3542 2.2485c -0.3542,0.9548 -1.0010,1.5785 -1.0010 1.5785c -0.6468,0.6237 -1.5477,0.9317 -1.5477 0.9317c -0.9009,0.3080 -2.0098,0.3080 -2.0098 0.3080h -2.9569 v -10.0411 ZM 366.6735,4.0606 ZM 369.3686,12.2690 c 0.6468,0.0000 1.1704,-0.1694 1.1704 -0.1694c 0.5236,-0.1694 0.8932,-0.5467 0.8932 -0.5467c 0.3696,-0.3773 0.5775,-0.9933 0.5775 -0.9933c 0.2079,-0.6160 0.2079,-1.5246 0.2079 -1.5246c 0.0000,-0.8932 -0.2079,-1.5015 -0.2079 -1.5015c -0.2079,-0.6083 -0.5775,-0.9702 -0.5775 -0.9702c -0.3696,-0.3619 -0.8932,-0.5159 -0.8932 -0.5159c -0.5236,-0.1540 -1.1704,-0.1540 -1.1704 -0.1540h -0.4312 v 6.3758 h 0.4312 ZM 375.2669,14.1016 ZM 377.3922,5.3388 c -0.5698,-0.0000 -0.9394,-0.3311 -0.9394 -0.3311c -0.3696,-0.3311 -0.3696,-0.8547 -0.3696 -0.8547c 0.0000,-0.5236 0.3696,-0.8470 0.3696 -0.8470c 0.3696,-0.3234 0.9394,-0.3234 0.9394 -0.3234c 0.5852,0.0000 0.9471,0.3234 0.9471 0.3234c 0.3619,0.3234 0.3619,0.8470 0.3619 0.8470c 0.0000,0.5236 -0.3619,0.8547 -0.3619 0.8547c -0.3619,0.3311 -0.9471,0.3311 -0.9471 0.3311ZM 377.3922,5.3388 ZM 376.2680,6.4630 h 2.2639 v 7.6386 h -2.2639 v -7.6386 ZM 379.5175,14.1016 ZM 380.8573,11.8070 c 0.5236,0.4004 1.0010,0.6006 1.0010 0.6006c 0.4774,0.2002 0.9702,0.2002 0.9702 0.2002c 0.5082,0.0000 0.7392,-0.1694 0.7392 -0.1694c 0.2310,-0.1694 0.2310,-0.4774 0.2310 -0.4774c 0.0000,-0.1848 -0.1309,-0.3311 -0.1309 -0.3311c -0.1309,-0.1463 -0.3542,-0.2695 -0.3542 -0.2695c -0.2233,-0.1232 -0.5005,-0.2233 -0.5005 -0.2233c -0.2772,-0.1001 -0.5698,-0.2233 -0.5698 -0.2233c -0.3542,-0.1386 -0.7084,-0.3234 -0.7084 -0.3234c -0.3542,-0.1848 -0.6468,-0.4543 -0.6468 -0.4543c -0.2926,-0.2695 -0.4774,-0.6314 -0.4774 -0.6314c -0.1848,-0.3619 -0.1848,-0.8393 -0.1848 -0.8393c 0.0000,-0.5236 0.2079,-0.9702 0.2079 -0.9702c 0.2079,-0.4466 0.5929,-0.7546 0.5929 -0.7546c 0.3850,-0.3080 0.9240,-0.4851 0.9240 -0.4851c 0.5390,-0.1771 1.2012,-0.1771 1.2012 -0.1771c 0.8778,0.0000 1.5400,0.3003 1.5400 0.3003c 0.6622,0.3003 1.1550,0.6699 1.1550 0.6699l -1.0164,1.3552 c -0.4158,-0.3080 -0.8162,-0.4774 -0.8162 -0.4774c -0.4004,-0.1694 -0.8008,-0.1694 -0.8008 -0.1694c -0.8624,-0.0000 -0.8624,0.6006 -0.8624 0.6006c 0.0000,0.1848 0.1232,0.3157 0.1232 0.3157c 0.1232,0.1309 0.3311,0.2387 0.3311 0.2387c 0.2079,0.1078 0.4774,0.2079 0.4774 0.2079c 0.2695,0.1001 0.5621,0.2079 0.5621 0.2079c 0.3696,0.1386 0.7315,0.3157 0.7315 0.3157c 0.3619,0.1771 0.6622,0.4389 0.6622 0.4389c 0.3003,0.2618 0.4851,0.6391 0.4851 0.6391c 0.1848,0.3773 0.1848,0.9009 0.1848 0.9009c 0.0000,0.5236 -0.2002,0.9702 -0.2002 0.9702c -0.2002,0.4466 -0.6006,0.7777 -0.6006 0.7777c -0.4004,0.3311 -0.9856,0.5236 -0.9856 0.5236c -0.5852,0.1925 -1.3552,0.1925 -1.3552 0.1925c -0.7546,-0.0000 -1.5477,-0.2926 -1.5477 -0.2926c -0.7931,-0.2926 -1.3783,-0.7700 -1.3783 -0.7700ZM 386.3398,14.1016 ZM 387.6489,8.2341 h -1.0472 v -1.6786 l 1.1704,-0.0924 l 0.2618,-2.0329 h 1.8789 v 2.0329 h 1.8326 v 1.7710 h -1.8326 v 3.0647 c 0.0000,0.6468 0.2695,0.9317 0.2695 0.9317c 0.2695,0.2849 0.7161,0.2849 0.7161 0.2849c 0.1848,0.0000 0.3773,-0.0462 0.3773 -0.0462c 0.1925,-0.0462 0.3465,-0.1078 0.3465 -0.1078l 0.3542,1.6478 c -0.3080,0.0924 -0.7238,0.1848 -0.7238 0.1848c -0.4158,0.0924 -0.9702,0.0924 -0.9702 0.0924c -0.7084,-0.0000 -1.2089,-0.2156 -1.2089 -0.2156c -0.5005,-0.2156 -0.8162,-0.6006 -0.8162 -0.6006c -0.3157,-0.3850 -0.4620,-0.9317 -0.4620 -0.9317c -0.1463,-0.5467 -0.1463,-1.2089 -0.1463 -1.2089v -3.0955 ZM 392.0534,14.1016 ZM 392.7772,11.9764 c 0.0000,-1.2012 1.0164,-1.8789 1.0164 -1.8789c 1.0164,-0.6776 3.2803,-0.9086 3.2803 -0.9086c -0.0308,-0.5082 -0.3080,-0.8085 -0.3080 -0.8085c -0.2772,-0.3003 -0.8932,-0.3003 -0.8932 -0.3003c -0.4928,-0.0000 -0.9856,0.1848 -0.9856 0.1848c -0.4928,0.1848 -1.0472,0.5082 -1.0472 0.5082l -0.8008,-1.4938 c 0.7392,-0.4466 1.5477,-0.7238 1.5477 -0.7238c 0.8085,-0.2772 1.7171,-0.2772 1.7171 -0.2772c 1.4784,0.0000 2.2562,0.8393 2.2562 0.8393c 0.7777,0.8393 0.7777,2.6104 0.7777 2.6104v 4.3737 h -1.8480 l -0.1694,-0.7854 h -0.0462 c -0.4928,0.4312 -1.0395,0.7007 -1.0395 0.7007c -0.5467,0.2695 -1.1935,0.2695 -1.1935 0.2695c -0.5236,-0.0000 -0.9394,-0.1771 -0.9394 -0.1771c -0.4158,-0.1771 -0.7084,-0.4928 -0.7084 -0.4928c -0.2926,-0.3157 -0.4543,-0.7315 -0.4543 -0.7315c -0.1617,-0.4158 -0.1617,-0.9086 -0.1617 -0.9086ZM 392.7772,11.9764 ZM 394.9333,11.8070 c 0.0000,0.3696 0.2387,0.5467 0.2387 0.5467c 0.2387,0.1771 0.6391,0.1771 0.6391 0.1771c 0.4004,0.0000 0.6776,-0.1694 0.6776 -0.1694c 0.2772,-0.1694 0.5852,-0.4774 0.5852 -0.4774v -1.3398 c -1.2166,0.1694 -1.6786,0.4928 -1.6786 0.4928c -0.4620,0.3234 -0.4620,0.7700 -0.4620 0.7700ZM 400.2772,14.1016 ZM 401.2782,6.4630 h 1.8480 l 0.1540,0.9702 h 0.0616 c 0.4928,-0.4620 1.0780,-0.8085 1.0780 -0.8085c 0.5852,-0.3465 1.3706,-0.3465 1.3706 -0.3465c 1.2474,0.0000 1.8095,0.8162 1.8095 0.8162c 0.5621,0.8162 0.5621,2.2639 0.5621 2.2639v 4.7433 h -2.2639 v -4.4507 c 0.0000,-0.8316 -0.2233,-1.1396 -0.2233 -1.1396c -0.2233,-0.3080 -0.7161,-0.3080 -0.7161 -0.3080c -0.4312,-0.0000 -0.7392,0.1925 -0.7392 0.1925c -0.3080,0.1925 -0.6776,0.5467 -0.6776 0.5467v 5.1591 h -2.2639 v -7.6386 ZM 409.0862,14.1016 ZM 409.6407,10.2823 c 0.0000,-0.9548 0.3234,-1.7017 0.3234 -1.7017c 0.3234,-0.7469 0.8701,-1.2551 0.8701 -1.2551c 0.5467,-0.5082 1.2705,-0.7777 1.2705 -0.7777c 0.7238,-0.2695 1.5092,-0.2695 1.5092 -0.2695c 0.7084,0.0000 1.2782,0.2387 1.2782 0.2387c 0.5698,0.2387 0.9548,0.6391 0.9548 0.6391l -1.0318,1.4014 c -0.5390,-0.4466 -1.0626,-0.4466 -1.0626 -0.4466c -0.8316,-0.0000 -1.3090,0.5852 -1.3090 0.5852c -0.4774,0.5852 -0.4774,1.5862 -0.4774 1.5862c 0.0000,1.0010 0.4851,1.5862 0.4851 1.5862c 0.4851,0.5852 1.2243,0.5852 1.2243 0.5852c 0.4158,0.0000 0.7546,-0.1694 0.7546 -0.1694c 0.3388,-0.1694 0.6160,-0.3850 0.6160 -0.3850l 0.9086,1.4322 c -0.5544,0.4928 -1.2320,0.7238 -1.2320 0.7238c -0.6776,0.2310 -1.3090,0.2310 -1.3090 0.2310c -0.8008,-0.0000 -1.4861,-0.2695 -1.4861 -0.2695c -0.6853,-0.2695 -1.1935,-0.7777 -1.1935 -0.7777c -0.5082,-0.5082 -0.8008,-1.2551 -0.8008 -1.2551c -0.2926,-0.7469 -0.2926,-1.7017 -0.2926 -1.7017ZM 415.8470,14.1016 ZM 416.4014,10.2823 c 0.0000,-0.9240 0.3080,-1.6709 0.3080 -1.6709c 0.3080,-0.7469 0.8085,-1.2628 0.8085 -1.2628c 0.5005,-0.5159 1.1473,-0.7931 1.1473 -0.7931c 0.6468,-0.2772 1.3398,-0.2772 1.3398 -0.2772c 0.8162,0.0000 1.4245,0.2772 1.4245 0.2772c 0.6083,0.2772 1.0164,0.7700 1.0164 0.7700c 0.4081,0.4928 0.6083,1.1627 0.6083 1.1627c 0.2002,0.6699 0.2002,1.4553 0.2002 1.4553c 0.0000,0.3080 -0.0308,0.5621 -0.0308 0.5621c -0.0308,0.2541 -0.0616,0.3927 -0.0616 0.3927h -4.5739 c 0.1540,0.8778 0.6853,1.2705 0.6853 1.2705c 0.5313,0.3927 1.3013,0.3927 1.3013 0.3927c 0.8162,0.0000 1.6478,-0.5082 1.6478 -0.5082l 0.7546,1.3706 c -0.5852,0.4004 -1.3013,0.6314 -1.3013 0.6314c -0.7161,0.2310 -1.4091,0.2310 -1.4091 0.2310c -0.8162,-0.0000 -1.5246,-0.2695 -1.5246 -0.2695c -0.7084,-0.2695 -1.2320,-0.7854 -1.2320 -0.7854c -0.5236,-0.5159 -0.8162,-1.2551 -0.8162 -1.2551c -0.2926,-0.7392 -0.2926,-1.6940 -0.2926 -1.6940ZM 416.4014,10.2823 ZM 421.3296,9.4969 c 0.0000,-0.6622 -0.2926,-1.0780 -0.2926 -1.0780c -0.2926,-0.4158 -0.9856,-0.4158 -0.9856 -0.4158c -0.5390,-0.0000 -0.9471,0.3619 -0.9471 0.3619c -0.4081,0.3619 -0.5313,1.1319 -0.5313 1.1319h 2.7567 ZM 427.0277,14.1016 ZM 430.9086,8.8347 c 0.3696,0.0000 0.7546,-0.2156 0.7546 -0.2156c 0.3850,-0.2156 0.7084,-0.7546 0.7084 -0.7546c -0.1540,-1.1550 -0.5775,-1.5939 -0.5775 -1.5939c -0.4235,-0.4389 -0.9471,-0.4389 -0.9471 -0.4389c -0.4928,-0.0000 -0.8624,0.3773 -0.8624 0.3773c -0.3696,0.3773 -0.3696,1.2089 -0.3696 1.2089c 0.0000,0.7854 0.3696,1.1011 0.3696 1.1011c 0.3696,0.3157 0.9240,0.3157 0.9240 0.3157ZM 430.9086,8.8347 ZM 428.8912,11.7608 c 0.2464,0.2772 0.6622,0.4851 0.6622 0.4851c 0.4158,0.2079 0.8470,0.2079 0.8470 0.2079c 0.4158,0.0000 0.7700,-0.1540 0.7700 -0.1540c 0.3542,-0.1540 0.6237,-0.5159 0.6237 -0.5159c 0.2695,-0.3619 0.4312,-0.9394 0.4312 -0.9394c 0.1617,-0.5775 0.1925,-1.4399 0.1925 -1.4399c -0.1848,0.2464 -0.4312,0.4389 -0.4312 0.4389c -0.2464,0.1925 -0.5082,0.3234 -0.5082 0.3234c -0.2618,0.1309 -0.5236,0.2002 -0.5236 0.2002c -0.2618,0.0693 -0.4928,0.0693 -0.4928 0.0693c -0.6314,-0.0000 -1.1627,-0.1848 -1.1627 -0.1848c -0.5313,-0.1848 -0.9163,-0.5544 -0.9163 -0.5544c -0.3850,-0.3696 -0.6083,-0.9394 -0.6083 -0.9394c -0.2233,-0.5698 -0.2233,-1.3398 -0.2233 -1.3398c 0.0000,-0.7546 0.2618,-1.3629 0.2618 -1.3629c 0.2618,-0.6083 0.7007,-1.0395 0.7007 -1.0395c 0.4389,-0.4312 1.0318,-0.6545 1.0318 -0.6545c 0.5929,-0.2233 1.2551,-0.2233 1.2551 -0.2233c 0.7084,0.0000 1.3783,0.2772 1.3783 0.2772c 0.6699,0.2772 1.1858,0.8624 1.1858 0.8624c 0.5159,0.5852 0.8316,1.5015 0.8316 1.5015c 0.3157,0.9163 0.3157,2.2100 0.3157 2.2100c 0.0000,1.3706 -0.3311,2.3717 -0.3311 2.3717c -0.3311,1.0010 -0.8778,1.6478 -0.8778 1.6478c -0.5467,0.6468 -1.2628,0.9625 -1.2628 0.9625c -0.7161,0.3157 -1.4861,0.3157 -1.4861 0.3157c -0.9702,-0.0000 -1.6863,-0.3542 -1.6863 -0.3542c -0.7161,-0.3542 -1.1781,-0.8162 -1.1781 -0.8162ZM 435.1591,14.1016 ZM 437.6078,14.1016 c 0.0616,-1.2166 0.2233,-2.2408 0.2233 -2.2408c 0.1617,-1.0241 0.4620,-1.9559 0.4620 -1.9559c 0.3003,-0.9317 0.7700,-1.8249 0.7700 -1.8249c 0.4697,-0.8932 1.1627,-1.8480 1.1627 -1.8480h -4.3891 v -1.9097 h 6.8070 v 1.3860 c -0.8470,1.0318 -1.3629,1.9328 -1.3629 1.9328c -0.5159,0.9009 -0.8008,1.8634 -0.8008 1.8634c -0.2849,0.9625 -0.4081,2.0637 -0.4081 2.0637c -0.1232,1.1011 -0.1848,2.5334 -0.1848 2.5334h -2.2793 h 0.0000 ZM 443.2906,14.1016 ZM 445.7392,14.1016 c 0.0616,-1.2166 0.2233,-2.2408 0.2233 -2.2408c 0.1617,-1.0241 0.4620,-1.9559 0.4620 -1.9559c 0.3003,-0.9317 0.7700,-1.8249 0.7700 -1.8249c 0.4697,-0.8932 1.1627,-1.8480 1.1627 -1.8480h -4.3891 v -1.9097 h 6.8070 v 1.3860 c -0.8470,1.0318 -1.3629,1.9328 -1.3629 1.9328c -0.5159,0.9009 -0.8008,1.8634 -0.8008 1.8634c -0.2849,0.9625 -0.4081,2.0637 -0.4081 2.0637c -0.1232,1.1011 -0.1848,2.5334 -0.1848 2.5334h -2.2793 h 0.0000 ZM 451.4220,14.1016 ZM 452.3614,12.8696 c 0.0000,-0.6160 0.3927,-1.0241 0.3927 -1.0241c 0.3927,-0.4081 0.9779,-0.4081 0.9779 -0.4081c 0.5852,0.0000 0.9779,0.4081 0.9779 0.4081c 0.3927,0.4081 0.3927,1.0241 0.3927 1.0241c 0.0000,0.6006 -0.3927,1.0087 -0.3927 1.0087c -0.3927,0.4081 -0.9779,0.4081 -0.9779 0.4081c -0.5852,-0.0000 -0.9779,-0.4081 -0.9779 -0.4081c -0.3927,-0.4081 -0.3927,-1.0087 -0.3927 -1.0087ZM 456.0421,14.1016 ZM 459.9230,8.8347 c 0.3696,0.0000 0.7546,-0.2156 0.7546 -0.2156c 0.3850,-0.2156 0.7084,-0.7546 0.7084 -0.7546c -0.1540,-1.1550 -0.5775,-1.5939 -0.5775 -1.5939c -0.4235,-0.4389 -0.9471,-0.4389 -0.9471 -0.4389c -0.4928,-0.0000 -0.8624,0.3773 -0.8624 0.3773c -0.3696,0.3773 -0.3696,1.2089 -0.3696 1.2089c 0.0000,0.7854 0.3696,1.1011 0.3696 1.1011c 0.3696,0.3157 0.9240,0.3157 0.9240 0.3157ZM 459.9230,8.8347 ZM 457.9055,11.7608 c 0.2464,0.2772 0.6622,0.4851 0.6622 0.4851c 0.4158,0.2079 0.8470,0.2079 0.8470 0.2079c 0.4158,0.0000 0.7700,-0.1540 0.7700 -0.1540c 0.3542,-0.1540 0.6237,-0.5159 0.6237 -0.5159c 0.2695,-0.3619 0.4312,-0.9394 0.4312 -0.9394c 0.1617,-0.5775 0.1925,-1.4399 0.1925 -1.4399c -0.1848,0.2464 -0.4312,0.4389 -0.4312 0.4389c -0.2464,0.1925 -0.5082,0.3234 -0.5082 0.3234c -0.2618,0.1309 -0.5236,0.2002 -0.5236 0.2002c -0.2618,0.0693 -0.4928,0.0693 -0.4928 0.0693c -0.6314,-0.0000 -1.1627,-0.1848 -1.1627 -0.1848c -0.5313,-0.1848 -0.9163,-0.5544 -0.9163 -0.5544c -0.3850,-0.3696 -0.6083,-0.9394 -0.6083 -0.9394c -0.2233,-0.5698 -0.2233,-1.3398 -0.2233 -1.3398c 0.0000,-0.7546 0.2618,-1.3629 0.2618 -1.3629c 0.2618,-0.6083 0.7007,-1.0395 0.7007 -1.0395c 0.4389,-0.4312 1.0318,-0.6545 1.0318 -0.6545c 0.5929,-0.2233 1.2551,-0.2233 1.2551 -0.2233c 0.7084,0.0000 1.3783,0.2772 1.3783 0.2772c 0.6699,0.2772 1.1858,0.8624 1.1858 0.8624c 0.5159,0.5852 0.8316,1.5015 0.8316 1.5015c 0.3157,0.9163 0.3157,2.2100 0.3157 2.2100c 0.0000,1.3706 -0.3311,2.3717 -0.3311 2.3717c -0.3311,1.0010 -0.8778,1.6478 -0.8778 1.6478c -0.5467,0.6468 -1.2628,0.9625 -1.2628 0.9625c -0.7161,0.3157 -1.4861,0.3157 -1.4861 0.3157c -0.9702,-0.0000 -1.6863,-0.3542 -1.6863 -0.3542c -0.7161,-0.3542 -1.1781,-0.8162 -1.1781 -0.8162ZM 464.1735,14.1016 ZM 468.4548,12.5924 c 0.5082,0.0000 0.8701,-0.3773 0.8701 -0.3773c 0.3619,-0.3773 0.3619,-1.2089 0.3619 -1.2089c 0.0000,-0.7854 -0.3619,-1.1011 -0.3619 -1.1011c -0.3619,-0.3157 -0.9163,-0.3157 -0.9163 -0.3157c -0.3696,-0.0000 -0.7546,0.2156 -0.7546 0.2156c -0.3850,0.2156 -0.7238,0.7546 -0.7238 0.7546c 0.0770,0.5852 0.2310,0.9702 0.2310 0.9702c 0.1540,0.3850 0.3542,0.6237 0.3542 0.6237c 0.2002,0.2387 0.4389,0.3388 0.4389 0.3388c 0.2387,0.1001 0.5005,0.1001 0.5005 0.1001ZM 468.4548,12.5924 ZM 470.4261,6.6632 c -0.2618,-0.2772 -0.6776,-0.4851 -0.6776 -0.4851c -0.4158,-0.2079 -0.8470,-0.2079 -0.8470 -0.2079c -0.4004,-0.0000 -0.7546,0.1540 -0.7546 0.1540c -0.3542,0.1540 -0.6237,0.5159 -0.6237 0.5159c -0.2695,0.3619 -0.4389,0.9471 -0.4389 0.9471c -0.1694,0.5852 -0.2002,1.4322 -0.2002 1.4322c 0.1848,-0.2464 0.4312,-0.4389 0.4312 -0.4389c 0.2464,-0.1925 0.5082,-0.3234 0.5082 -0.3234c 0.2618,-0.1309 0.5236,-0.2002 0.5236 -0.2002c 0.2618,-0.0693 0.4928,-0.0693 0.4928 -0.0693c 0.6314,0.0000 1.1627,0.1848 1.1627 0.1848c 0.5313,0.1848 0.9240,0.5544 0.9240 0.5544c 0.3927,0.3696 0.6083,0.9394 0.6083 0.9394c 0.2156,0.5698 0.2156,1.3398 0.2156 1.3398c 0.0000,0.7700 -0.2618,1.3706 -0.2618 1.3706c -0.2618,0.6006 -0.7007,1.0318 -0.7007 1.0318c -0.4389,0.4312 -1.0318,0.6545 -1.0318 0.6545c -0.5929,0.2233 -1.2551,0.2233 -1.2551 0.2233c -0.7084,-0.0000 -1.3783,-0.2772 -1.3783 -0.2772c -0.6699,-0.2772 -1.1858,-0.8624 -1.1858 -0.8624c -0.5159,-0.5852 -0.8239,-1.5015 -0.8239 -1.5015c -0.3080,-0.9163 -0.3080,-2.2100 -0.3080 -2.2100c 0.0000,-1.3706 0.3311,-2.3717 0.3311 -2.3717c 0.3311,-1.0010 0.8778,-1.6478 0.8778 -1.6478c 0.5467,-0.6468 1.2628,-0.9625 1.2628 -0.9625c 0.7161,-0.3157 1.4861,-0.3157 1.4861 -0.3157c 0.9702,0.0000 1.6786,0.3465 1.6786 0.3465c 0.7084,0.3465 1.1704,0.8239 1.1704 0.8239ZM 472.3049,14.1016 ZM 473.3830,12.2690 h 2.1253 v -5.6520 h -1.8326 v -1.4014 c 0.8008,-0.1540 1.3552,-0.3696 1.3552 -0.3696c 0.5544,-0.2156 1.0780,-0.5236 1.0780 -0.5236h 1.6632 v 7.9466 h 1.8326 v 1.8326 h -6.2218 v -1.8326 ZM 480.4363,14.1016 ZM 481.8070,11.4836 c 0.4466,0.4004 0.9625,0.6853 0.9625 0.6853c 0.5159,0.2849 1.1473,0.2849 1.1473 0.2849c 0.7546,0.0000 1.2012,-0.3850 1.2012 -0.3850c 0.4466,-0.3850 0.4466,-1.1396 0.4466 -1.1396c 0.0000,-0.7392 -0.4235,-1.1242 -0.4235 -1.1242c -0.4235,-0.3850 -1.1165,-0.3850 -1.1165 -0.3850c -0.2156,-0.0000 -0.3850,0.0231 -0.3850 0.0231c -0.1694,0.0231 -0.3311,0.0847 -0.3311 0.0847c -0.1617,0.0616 -0.3388,0.1540 -0.3388 0.1540c -0.1771,0.0924 -0.3927,0.2310 -0.3927 0.2310l -1.0164,-0.6468 l 0.2772,-4.9435 h 5.5441 v 1.9097 h -3.5883 l -0.1694,1.8326 c 0.2772,-0.1232 0.5313,-0.1771 0.5313 -0.1771c 0.2541,-0.0539 0.5621,-0.0539 0.5621 -0.0539c 0.6314,0.0000 1.1935,0.1848 1.1935 0.1848c 0.5621,0.1848 0.9933,0.5544 0.9933 0.5544c 0.4312,0.3696 0.6776,0.9394 0.6776 0.9394c 0.2464,0.5698 0.2464,1.3552 0.2464 1.3552c 0.0000,0.8162 -0.2926,1.4476 -0.2926 1.4476c -0.2926,0.6314 -0.7854,1.0703 -0.7854 1.0703c -0.4928,0.4389 -1.1473,0.6699 -1.1473 0.6699c -0.6545,0.2310 -1.3629,0.2310 -1.3629 0.2310c -1.2012,-0.0000 -2.0329,-0.3927 -2.0329 -0.3927c -0.8316,-0.3927 -1.4168,-0.9779 -1.4168 -0.9779ZM 488.5678,14.1016 ZM 489.9384,11.4836 c 0.4466,0.4004 0.9625,0.6853 0.9625 0.6853c 0.5159,0.2849 1.1473,0.2849 1.1473 0.2849c 0.7546,0.0000 1.2012,-0.3850 1.2012 -0.3850c 0.4466,-0.3850 0.4466,-1.1396 0.4466 -1.1396c 0.0000,-0.7392 -0.4235,-1.1242 -0.4235 -1.1242c -0.4235,-0.3850 -1.1165,-0.3850 -1.1165 -0.3850c -0.2156,-0.0000 -0.3850,0.0231 -0.3850 0.0231c -0.1694,0.0231 -0.3311,0.0847 -0.3311 0.0847c -0.1617,0.0616 -0.3388,0.1540 -0.3388 0.1540c -0.1771,0.0924 -0.3927,0.2310 -0.3927 0.2310l -1.0164,-0.6468 l 0.2772,-4.9435 h 5.5441 v 1.9097 h -3.5883 l -0.1694,1.8326 c 0.2772,-0.1232 0.5313,-0.1771 0.5313 -0.1771c 0.2541,-0.0539 0.5621,-0.0539 0.5621 -0.0539c 0.6314,0.0000 1.1935,0.1848 1.1935 0.1848c 0.5621,0.1848 0.9933,0.5544 0.9933 0.5544c 0.4312,0.3696 0.6776,0.9394 0.6776 0.9394c 0.2464,0.5698 0.2464,1.3552 0.2464 1.3552c 0.0000,0.8162 -0.2926,1.4476 -0.2926 1.4476c -0.2926,0.6314 -0.7854,1.0703 -0.7854 1.0703c -0.4928,0.4389 -1.1473,0.6699 -1.1473 0.6699c -0.6545,0.2310 -1.3629,0.2310 -1.3629 0.2310c -1.2012,-0.0000 -2.0329,-0.3927 -2.0329 -0.3927c -0.8316,-0.3927 -1.4168,-0.9779 -1.4168 -0.9779Z"/></g><g stroke-linejoin="miter" stroke-opacity="1.0" fill-opacity="0.0" stroke="rgb(211,211,211)" stroke-width="0.9999999999999997" fill="rgb(0,0,0)" stroke-dashoffset="0.0" stroke-linecap="butt" stroke-miterlimit="10.0" stroke-dasharray="4.999999999999998,4.999999999999998"><path d="M 29.8004,35.0000 v 515.0000 "/></g><g stroke-linejoin="miter" stroke-opacity="1.0" fill-opacity="0.0" stroke="rgb(211,211,211)" stroke-width="0.9999999999999997" fill="rgb(0,0,0)" stroke-dashoffset="0.0" stroke-linecap="butt" stroke-miterlimit="10.0" stroke-dasharray="4.999999999999998,4.999999999999998"><path d="M 218.6253,35.0000 v 515.0000 "/></g><g stroke-linejoin="miter" stroke-opacity="1.0" fill-opacity="0.0" stroke="rgb(211,211,211)" stroke-width="0.9999999999999997" fill="rgb(0,0,0)" stroke-dashoffset="0.0" stroke-linecap="butt" stroke-miterlimit="10.0" stroke-dasharray="4.999999999999998,4.999999999999998"><path d="M 407.4501,35.0000 v 515.0000 "/></g><g stroke-linejoin="miter" stroke-opacity="1.0" fill-opacity="0.0" stroke="rgb(211,211,211)" stroke-width="0.9999999999999997" fill="rgb(0,0,0)" stroke-dashoffset="0.0" stroke-linecap="butt" stroke-miterlimit="10.0" stroke-dasharray="4.999999999999998,4.999999999999998"><path d="M 596.2749,35.0000 v 515.0000 "/></g><g stroke-linejoin="miter" stroke-opacity="1.0" fill-opacity="0.0" stroke="rgb(211,211,211)" stroke-width="0.9999999999999997" fill="rgb(0,0,0)" stroke-dashoffset="0.0" stroke-linecap="butt" stroke-miterlimit="10.0" stroke-dasharray="4.999999999999998,4.999999999999998"><path d="M 785.0998,35.0000 v 515.0000 "/></g><g stroke-linejoin="miter" stroke-opacity="1.0" fill-opacity="0.0" stroke="rgb(211,211,211)" stroke-width="0.9999999999999997" fill="rgb(0,0,0)" stroke-dashoffset="0.0" stroke-linecap="butt" stroke-miterlimit="10.0" stroke-dasharray="4.999999999999998,4.999999999999998"><path d="M 29.8004,550.0000 h 755.2994 "/></g><g stroke-linejoin="miter" stroke-opacity="1.0" fill-opacity="0.0" stroke="rgb(211,211,211)" stroke-width="0.9999999999999997" fill="rgb(0,0,0)" stroke-dashoffset="0.0" stroke-linecap="butt" stroke-miterlimit="10.0" stroke-dasharray="4.999999999999998,4.999999999999998"><path d="M 29.8004,421.2500 h 755.2994 "/></g><g stroke-linejoin="miter" stroke-opacity="1.0" fill-opacity="0.0" stroke="rgb(211,211,211)" stroke-width="0.9999999999999997" fill="rgb(0,0,0)" stroke-dashoffset="0.0" stroke-linecap="butt" stroke-miterlimit="10.0" stroke-dasharray="4.999999999999998,4.999999999999998"><path d="M 29.8004,292.5000 h 755.2994 "/></g><g stroke-linejoin="miter" stroke-opacity="1.0" fill-opacity="0.0" stroke="rgb(211,211,211)" stroke-width="0.9999999999999997" fill="rgb(0,0,0)" stroke-dashoffset="0.0" stroke-linecap="butt" stroke-miterlimit="10.0" stroke-dasharray="4.999999999999998,4.999999999999998"><path d="M 29.8004,163.7500 h 755.2994 "/></g><g stroke-linejoin="miter" stroke-opacity="1.0" fill-opacity="0.0" stroke="rgb(211,211,211)" stroke-width="0.9999999999999997" fill="rgb(0,0,0)" stroke-dashoffset="0.0" stroke-linecap="butt" stroke-miterlimit="10.0" stroke-dasharray="4.999999999999998,4.999999999999998"><path d="M 29.8004,35.0000 h 755.2994 "/></g><g stroke-linejoin="round" stroke-opacity="1.0" fill-opacity="0.0" stroke="rgb(0,0,255)" stroke-width="0.9999999999999997" fill="rgb(0,0,0)" stroke-linecap="round" stroke-miterlimit="10.0"><defs><clipPath id="myClip1"><path d="M 29.8004,35.0000 v 515.0000 h 755.2994 v -515.0000 Z"/></clipPath></defs><g clip-path="url(#myClip1)"><path d="M 313.0377,324.6875 l 132.1774,51.5000 l 56.6475,-19.3125 l 188.8248,83.6875 v -148.0625 l -547.5920,12.8750 l 377.6497,19.3125 l -396.5322,32.1875 l 283.2373,-225.3125 l -94.4124,225.3125 l -75.5299,-6.4375 l 75.5299,-25.7500 "/></g></g><g stroke-linejoin="round" stroke-opacity="1.0" fill-opacity="0.0" stroke="rgb(0,128,0)" stroke-width="0.9999999999999997" fill="rgb(0,0,0)" stroke-linecap="round" stroke-miterlimit="10.0"><defs><clipPath id="myClip2"><path d="M 29.8004,35.0000 v 515.0000 h 755.2994 v -515.0000 Z"/></clipPath></defs><g clip-path="url(#myClip2)"><path d="M 313.0377,324.6875 l -132.1774,-135.1875 l -113.2949,51.5000 l 207.7073,-25.7500 l 37.7650,-51.5000 l 377.6497,-57.9375 l -207.7073,70.8125 l -169.9424,70.8125 l 226.5898,25.7500 v -167.3750 l 56.6475,57.9375 l -207.7073,251.0625 l -75.5299,-90.1250 "/></g></g><g stroke-linejoin="round" stroke-opacity="1.0" fill-opacity="0.0" stroke="rgb(255,0,0)" stroke-width="0.9999999999999997" fill="rgb(0,0,0)" stroke-linecap="round" stroke-miterlimit="10.0"><defs><clipPath id="myClip3"><path d="M 29.8004,35.0000 v 515.0000 h 755.2994 v -515.0000 Z"/></clipPath></defs><g clip-path="url(#myClip3)"><path d="M 313.0377,324.6875 l 18.8825,83.6875 l -264.3548,-244.6250 l 75.5299,-51.5000 l 169.9424,-57.9375 l 207.7073,160.9375 l -18.8825,199.5625 l -132.1774,-19.3125 l -151.0599,25.7500 l 396.5322,-206.0000 v -96.5625 l -207.7073,109.4375 l -94.4124,96.5625 "/></g></g><g stroke-linejoin="round" stroke-opacity="1.0" fill-opacity="0.0" stroke="rgb(255,165,0)" stroke-width="0.9999999999999997" fill="rgb(0,0,0)" stroke-linecap="round" stroke-miterlimit="10.0"><defs><clipPath id="myClip4"><path d="M 29.8004,35.0000 v 515.0000 h 755.2994 v -515.0000 Z"/></clipPath></defs><g clip-path="url(#myClip4)"><path d="M 313.0377,324.6875 l -18.8825,-12.8750 l -75.5299,-38.6250 l 188.8248,19.3125 l 56.6475,238.1875 l 169.9424,-57.9375 l -321.0022,12.8750 l -75.5299,-25.7500 l 169.9424,-77.2500 l 94.4124,12.8750 l -151.0599,-64.3750 l -94.4124,64.3750 l -151.0599,38.6250 l 207.7073,-109.4375 "/></g></g><g stroke-linejoin="round" stroke-opacity="1.0" fill-opacity="0.0" stroke="rgb(255,255,0)" stroke-width="0.9999999999999997" fill="rgb(0,0,0)" stroke-linecap="round" stroke-miterlimit="10.0"><defs><clipPath id="myClip5"><path d="M 29.8004,35.0000 v 515.0000 h 755.2994 v -515.0000 Z"/></clipPath></defs><g clip-path="url(#myClip5)"><path d="M 313.0377,324.6875 l 169.9424,148.0625 l 75.5299,-38.6250 l 37.7650,83.6875 v -128.7500 l -169.9424,6.4375 l -56.6475,38.6250 l 151.0599,-57.9375 l -75.5299,32.1875 l -37.7650,12.8750 l -94.4124,6.4375 l -188.8248,90.1250 l 188.8248,-193.1250 "/></g></g><g stroke-linejoin="bevel" stroke-opacity="0.0" fill-opacity="1.0" stroke="rgb(0,0,0)" stroke-width="0.0" fill="rgb(238,130,238)" stroke-linecap="butt" stroke-miterlimit="10.0"><defs><clipPath id="myClip6"><path d="M 29.8004,35.0000 v 515.0000 h 755.2994 v -515.0000 Z"/></clipPath></defs><g clip-path="url(#myClip6)"><path d="M 315.0377,324.6875 c 0.0000,1.1046 -0.8954,2.0000 -2.0000 2.0000c -1.1046,0.0000 -2.0000,-0.8954 -2.0000 -2.0000c -0.0000,-1.1046 0.8954,-2.0000 2.0000 -2.0000c 1.1046,-0.0000 2.0000,0.8954 2.0000 2.0000Z"/></g></g><g stroke-linejoin="bevel" stroke-opacity="0.0" fill-opacity="0.0" stroke="rgb(0,0,0)" stroke-width="0.0" fill="rgb(0,0,0)" stroke-linecap="butt" stroke-miterlimit="10.0"><defs><clipPath id="myClip7"><path d="M 29.8004,35.0000 v 515.0000 h 755.2994 v -515.0000 Z"/></clipPath></defs><g clip-path="url(#myClip7)"><path d="M 315.0377,324.6875 c 0.0000,1.1046 -0.8954,2.0000 -2.0000 2.0000c -1.1046,0.0000 -2.0000,-0.8954 -2.0000 -2.0000c -0.0000,-1.1046 0.8954,-2.0000 2.0000 -2.0000c 1.1046,-0.0000 2.0000,0.8954 2.0000 2.0000"/></g></g><g stroke-linejoin="miter" stroke-opacity="1.0" fill-opacity="0.0" stroke="rgb(0,0,0)" stroke-width="0.9999999999999997" fill="rgb(0,0,0)" stroke-linecap="square" stroke-miterlimit="10.0"><path d="M 29.8004,550.0000 v -515.0000 "/></g><g stroke-linejoin="miter" stroke-opacity="1.0" fill-opacity="0.0" stroke="rgb(0,0,0)" stroke-width="0.9999999999999997" fill="rgb(0,0,0)" stroke-linecap="butt" stroke-miterlimit="10.0"><path d="M 29.8004,550.0000 h 2.0000 "/></g><g stroke-linejoin="miter" stroke-opacity="1.0" fill-opacity="0.0" stroke="rgb(0,0,0)" stroke-width="0.9999999999999997" fill="rgb(0,0,0)" stroke-linecap="butt" stroke-miterlimit="10.0"><path d="M 29.8004,485.6250 h 2.0000 "/></g><g stroke-linejoin="miter" stroke-opacity="1.0" fill-opacity="0.0" stroke="rgb(0,0,0)" stroke-width="0.9999999999999997" fill="rgb(0,0,0)" stroke-linecap="butt" stroke-miterlimit="10.0"><path d="M 29.8004,421.2500 h 2.0000 "/></g><g stroke-linejoin="miter" stroke-opacity="1.0" fill-opacity="0.0" stroke="rgb(0,0,0)" stroke-width="0.9999999999999997" fill="rgb(0,0,0)" stroke-linecap="butt" stroke-miterlimit="10.0"><path d="M 29.8004,356.8750 h 2.0000 "/></g><g stroke-linejoin="miter" stroke-opacity="1.0" fill-opacity="0.0" stroke="rgb(0,0,0)" stroke-width="0.9999999999999997" fill="rgb(0,0,0)" stroke-linecap="butt" stroke-miterlimit="10.0"><path d="M 29.8004,292.5000 h 2.0000 "/></g><g stroke-linejoin="miter" stroke-opacity="1.0" fill-opacity="0.0" stroke="rgb(0,0,0)" stroke-width="0.9999999999999997" fill="rgb(0,0,0)" stroke-linecap="butt" stroke-miterlimit="10.0"><path d="M 29.8004,228.1250 h 2.0000 "/></g><g stroke-linejoin="miter" stroke-opacity="1.0" fill-opacity="0.0" stroke="rgb(0,0,0)" stroke-width="0.9999999999999997" fill="rgb(0,0,0)" stroke-linecap="butt" stroke-miterlimit="10.0"><path d="M 29.8004,163.7500 h 2.0000 "/></g><g stroke-linejoin="miter" stroke-opacity="1.0" fill-opacity="0.0" stroke="rgb(0,0,0)" stroke-width="0.9999999999999997" fill="rgb(0,0,0)" stroke-linecap="butt" stroke-miterlimit="10.0"><path d="M 29.8004,99.3750 h 2.0000 "/></g><g stroke-linejoin="miter" stroke-opacity="1.0" fill-opacity="0.0" stroke="rgb(0,0,0)" stroke-width="0.9999999999999997" fill="rgb(0,0,0)" stroke-linecap="butt" stroke-miterlimit="10.0"><path d="M 29.8004,35.0000 h 2.0000 "/></g><g stroke-linejoin="miter" stroke-opacity="1.0" fill-opacity="0.0" stroke="rgb(0,0,0)" stroke-width="0.9999999999999997" fill="rgb(0,0,0)" stroke-linecap="butt" stroke-miterlimit="10.0"><path d="M 29.8004,550.0000 h 5.0000 "/></g><g stroke-linejoin="miter" stroke-opacity="1.0" fill-opacity="0.0" stroke="rgb(0,0,0)" stroke-width="0.9999999999999997" fill="rgb(0,0,0)" stroke-linecap="butt" stroke-miterlimit="10.0"><path d="M 29.8004,421.2500 h 5.0000 "/></g><g stroke-linejoin="miter" stroke-opacity="1.0" fill-opacity="0.0" stroke="rgb(0,0,0)" stroke-width="0.9999999999999997" fill="rgb(0,0,0)" stroke-linecap="butt" stroke-miterlimit="10.0"><path d="M 29.8004,292.5000 h 5.0000 "/></g><g stroke-linejoin="miter" stroke-opacity="1.0" fill-opacity="0.0" stroke="rgb(0,0,0)" stroke-width="0.9999999999999997" fill="rgb(0,0,0)" stroke-linecap="butt" stroke-miterlimit="10.0"><path d="M 29.8004,163.7500 h 5.0000 "/></g><g stroke-linejoin="miter" stroke-opacity="1.0" fill-opacity="0.0" stroke="rgb(0,0,0)" stroke-width="0.9999999999999997" fill="rgb(0,0,0)" stroke-linecap="butt" stroke-miterlimit="10.0"><path d="M 29.8004,35.0000 h 5.0000 "/></g><g stroke-linejoin="bevel" stroke-opacity="0.0" fill-opacity="1.0" stroke="rgb(0,0,0)" stroke-width="0.0" fill="rgb(0,0,0)" stroke-linecap="butt" stroke-miterlimit="10.0"><path d="M 15.5042,553.4454 ZM 18.1197,553.5714 c -1.0189,-0.0000 -1.5861,-0.9034 -1.5861 -0.9034c -0.5672,-0.9034 -0.5672,-2.5945 -0.5672 -2.5945c 0.0000,-1.6912 0.5672,-2.5735 0.5672 -2.5735c 0.5672,-0.8824 1.5861,-0.8824 1.5861 -0.8824c 1.0084,0.0000 1.5756,0.8824 1.5756 0.8824c 0.5672,0.8824 0.5672,2.5735 0.5672 2.5735c 0.0000,1.6912 -0.5672,2.5945 -0.5672 2.5945c -0.5672,0.9034 -1.5756,0.9034 -1.5756 0.9034ZM 18.1197,553.5714 ZM 18.1197,552.8782 c 0.2941,0.0000 0.5305,-0.1628 0.5305 -0.1628c 0.2363,-0.1628 0.4097,-0.5042 0.4097 -0.5042c 0.1733,-0.3414 0.2679,-0.8718 0.2679 -0.8718c 0.0945,-0.5305 0.0945,-1.2658 0.0945 -1.2658c 0.0000,-0.7353 -0.0945,-1.2605 -0.0945 -1.2605c -0.0945,-0.5252 -0.2679,-0.8561 -0.2679 -0.8561c -0.1733,-0.3309 -0.4097,-0.4884 -0.4097 -0.4884c -0.2363,-0.1576 -0.5305,-0.1576 -0.5305 -0.1576c -0.2941,-0.0000 -0.5357,0.1576 -0.5357 0.1576c -0.2416,0.1576 -0.4149,0.4884 -0.4149 0.4884c -0.1733,0.3309 -0.2679,0.8561 -0.2679 0.8561c -0.0945,0.5252 -0.0945,1.2605 -0.0945 1.2605c 0.0000,1.4706 0.3624,2.1376 0.3624 2.1376c 0.3624,0.6670 0.9506,0.6670 0.9506 0.6670Z"/></g><g stroke-linejoin="bevel" stroke-opacity="0.0" fill-opacity="1.0" stroke="rgb(0,0,0)" stroke-width="0.0" fill="rgb(0,0,0)" stroke-linecap="butt" stroke-miterlimit="10.0"><path d="M 10.1996,424.6954 ZM 10.6197,424.1807 c 0.7563,-0.7563 1.3445,-1.3655 1.3445 -1.3655c 0.5882,-0.6092 0.9874,-1.1292 0.9874 -1.1292c 0.3992,-0.5200 0.6092,-0.9559 0.6092 -0.9559c 0.2101,-0.4359 0.2101,-0.8456 0.2101 -0.8456c 0.0000,-0.5777 -0.3151,-0.9454 -0.3151 -0.9454c -0.3151,-0.3676 -0.9559,-0.3676 -0.9559 -0.3676c -0.4202,-0.0000 -0.7773,0.2363 -0.7773 0.2363c -0.3571,0.2363 -0.6513,0.5725 -0.6513 0.5725l -0.4937,-0.4937 c 0.4202,-0.4622 0.8929,-0.7405 0.8929 -0.7405c 0.4727,-0.2784 1.1345,-0.2784 1.1345 -0.2784c 0.9349,0.0000 1.4706,0.5410 1.4706 0.5410c 0.5357,0.5410 0.5357,1.4338 0.5357 1.4338c 0.0000,0.4727 -0.2048,0.9506 -0.2048 0.9506c -0.2048,0.4779 -0.5672,0.9874 -0.5672 0.9874c -0.3624,0.5095 -0.8613,1.0609 -0.8613 1.0609c -0.4989,0.5515 -1.0977,1.1712 -1.0977 1.1712c 0.2731,-0.0210 0.5672,-0.0420 0.5672 -0.0420c 0.2941,-0.0210 0.5567,-0.0210 0.5567 -0.0210h 1.9433 v 0.7458 h -4.3277 v -0.5147 ZM 15.4202,424.6954 ZM 18.0357,424.8214 c -1.0189,-0.0000 -1.5861,-0.9034 -1.5861 -0.9034c -0.5672,-0.9034 -0.5672,-2.5945 -0.5672 -2.5945c 0.0000,-1.6912 0.5672,-2.5735 0.5672 -2.5735c 0.5672,-0.8824 1.5861,-0.8824 1.5861 -0.8824c 1.0084,0.0000 1.5756,0.8824 1.5756 0.8824c 0.5672,0.8824 0.5672,2.5735 0.5672 2.5735c 0.0000,1.6912 -0.5672,2.5945 -0.5672 2.5945c -0.5672,0.9034 -1.5756,0.9034 -1.5756 0.9034ZM 18.0357,424.8214 ZM 18.0357,424.1282 c 0.2941,0.0000 0.5305,-0.1628 0.5305 -0.1628c 0.2363,-0.1628 0.4097,-0.5042 0.4097 -0.5042c 0.1733,-0.3414 0.2679,-0.8718 0.2679 -0.8718c 0.0945,-0.5305 0.0945,-1.2658 0.0945 -1.2658c 0.0000,-0.7353 -0.0945,-1.2605 -0.0945 -1.2605c -0.0945,-0.5252 -0.2679,-0.8561 -0.2679 -0.8561c -0.1733,-0.3309 -0.4097,-0.4884 -0.4097 -0.4884c -0.2363,-0.1576 -0.5305,-0.1576 -0.5305 -0.1576c -0.2941,-0.0000 -0.5357,0.1576 -0.5357 0.1576c -0.2416,0.1576 -0.4149,0.4884 -0.4149 0.4884c -0.1733,0.3309 -0.2679,0.8561 -0.2679 0.8561c -0.0945,0.5252 -0.0945,1.2605 -0.0945 1.2605c 0.0000,1.4706 0.3624,2.1376 0.3624 2.1376c 0.3624,0.6670 0.9506,0.6670 0.9506 0.6670Z"/></g><g stroke-linejoin="bevel" stroke-opacity="0.0" fill-opacity="1.0" stroke="rgb(0,0,0)" stroke-width="0.0" fill="rgb(0,0,0)" stroke-linecap="butt" stroke-miterlimit="10.0"><path d="M 10.0000,295.9454 ZM 13.1933,293.4034 v -1.9433 c 0.0000,-0.2731 0.0158,-0.6460 0.0158 -0.6460c 0.0158,-0.3729 0.0368,-0.6460 0.0368 -0.6460h -0.0420 c -0.1261,0.2416 -0.2626,0.4727 -0.2626 0.4727c -0.1366,0.2311 -0.2836,0.4727 -0.2836 0.4727l -1.5651,2.2899 h 2.1008 ZM 13.1933,293.4034 ZM 14.9265,294.0966 h -0.9139 v 1.8487 h -0.8193 v -1.8487 h -3.0147 v -0.5672 l 2.8676,-4.2857 h 0.9664 v 4.1597 h 0.9139 v 0.6933 ZM 15.2206,295.9454 ZM 17.8361,296.0714 c -1.0189,-0.0000 -1.5861,-0.9034 -1.5861 -0.9034c -0.5672,-0.9034 -0.5672,-2.5945 -0.5672 -2.5945c 0.0000,-1.6912 0.5672,-2.5735 0.5672 -2.5735c 0.5672,-0.8824 1.5861,-0.8824 1.5861 -0.8824c 1.0084,0.0000 1.5756,0.8824 1.5756 0.8824c 0.5672,0.8824 0.5672,2.5735 0.5672 2.5735c 0.0000,1.6912 -0.5672,2.5945 -0.5672 2.5945c -0.5672,0.9034 -1.5756,0.9034 -1.5756 0.9034ZM 17.8361,296.0714 ZM 17.8361,295.3782 c 0.2941,0.0000 0.5305,-0.1628 0.5305 -0.1628c 0.2363,-0.1628 0.4097,-0.5042 0.4097 -0.5042c 0.1733,-0.3414 0.2679,-0.8718 0.2679 -0.8718c 0.0945,-0.5305 0.0945,-1.2658 0.0945 -1.2658c 0.0000,-0.7353 -0.0945,-1.2605 -0.0945 -1.2605c -0.0945,-0.5252 -0.2679,-0.8561 -0.2679 -0.8561c -0.1733,-0.3309 -0.4097,-0.4884 -0.4097 -0.4884c -0.2363,-0.1576 -0.5305,-0.1576 -0.5305 -0.1576c -0.2941,-0.0000 -0.5357,0.1576 -0.5357 0.1576c -0.2416,0.1576 -0.4149,0.4884 -0.4149 0.4884c -0.1733,0.3309 -0.2679,0.8561 -0.2679 0.8561c -0.0945,0.5252 -0.0945,1.2605 -0.0945 1.2605c 0.0000,1.4706 0.3624,2.1376 0.3624 2.1376c 0.3624,0.6670 0.9506,0.6670 0.9506 0.6670Z"/></g><g stroke-linejoin="bevel" stroke-opacity="0.0" fill-opacity="1.0" stroke="rgb(0,0,0)" stroke-width="0.0" fill="rgb(0,0,0)" stroke-linecap="butt" stroke-miterlimit="10.0"><path d="M 10.3256,167.1954 ZM 13.1408,166.6387 c 0.2521,0.0000 0.4622,-0.1050 0.4622 -0.1050c 0.2101,-0.1050 0.3676,-0.2994 0.3676 -0.2994c 0.1576,-0.1943 0.2468,-0.4622 0.2468 -0.4622c 0.0893,-0.2679 0.0893,-0.6040 0.0893 -0.6040c 0.0000,-0.6618 -0.3046,-1.0399 -0.3046 -1.0399c -0.3046,-0.3782 -0.9349,-0.3782 -0.9349 -0.3782c -0.3151,-0.0000 -0.6880,0.2048 -0.6880 0.2048c -0.3729,0.2048 -0.7090,0.6775 -0.7090 0.6775c 0.0840,0.9874 0.4569,1.4968 0.4569 1.4968c 0.3729,0.5095 1.0137,0.5095 1.0137 0.5095ZM 13.1408,166.6387 ZM 14.5168,161.6176 c -0.2101,-0.2416 -0.4989,-0.3834 -0.4989 -0.3834c -0.2889,-0.1418 -0.6040,-0.1418 -0.6040 -0.1418c -0.3466,-0.0000 -0.6618,0.1471 -0.6618 0.1471c -0.3151,0.1471 -0.5567,0.4832 -0.5567 0.4832c -0.2416,0.3361 -0.3887,0.8771 -0.3887 0.8771c -0.1471,0.5410 -0.1576,1.3393 -0.1576 1.3393c 0.3151,-0.3887 0.7353,-0.6145 0.7353 -0.6145c 0.4202,-0.2258 0.8298,-0.2258 0.8298 -0.2258c 0.8718,0.0000 1.3918,0.5147 1.3918 0.5147c 0.5200,0.5147 0.5200,1.5546 0.5200 1.5546c 0.0000,0.4832 -0.1576,0.8771 -0.1576 0.8771c -0.1576,0.3939 -0.4307,0.6775 -0.4307 0.6775c -0.2731,0.2836 -0.6303,0.4412 -0.6303 0.4412c -0.3571,0.1576 -0.7668,0.1576 -0.7668 0.1576c -0.4937,-0.0000 -0.9139,-0.1996 -0.9139 -0.1996c -0.4202,-0.1996 -0.7300,-0.6040 -0.7300 -0.6040c -0.3099,-0.4044 -0.4884,-1.0084 -0.4884 -1.0084c -0.1786,-0.6040 -0.1786,-1.4128 -0.1786 -1.4128c 0.0000,-1.0084 0.2101,-1.7174 0.2101 -1.7174c 0.2101,-0.7090 0.5672,-1.1555 0.5672 -1.1555c 0.3571,-0.4464 0.8141,-0.6513 0.8141 -0.6513c 0.4569,-0.2048 0.9611,-0.2048 0.9611 -0.2048c 0.5462,0.0000 0.9401,0.2048 0.9401 0.2048c 0.3939,0.2048 0.6775,0.5095 0.6775 0.5095ZM 15.5462,167.1954 ZM 18.1618,167.3214 c -1.0189,-0.0000 -1.5861,-0.9034 -1.5861 -0.9034c -0.5672,-0.9034 -0.5672,-2.5945 -0.5672 -2.5945c 0.0000,-1.6912 0.5672,-2.5735 0.5672 -2.5735c 0.5672,-0.8824 1.5861,-0.8824 1.5861 -0.8824c 1.0084,0.0000 1.5756,0.8824 1.5756 0.8824c 0.5672,0.8824 0.5672,2.5735 0.5672 2.5735c 0.0000,1.6912 -0.5672,2.5945 -0.5672 2.5945c -0.5672,0.9034 -1.5756,0.9034 -1.5756 0.9034ZM 18.1618,167.3214 ZM 18.1618,166.6282 c 0.2941,0.0000 0.5305,-0.1628 0.5305 -0.1628c 0.2363,-0.1628 0.4097,-0.5042 0.4097 -0.5042c 0.1733,-0.3414 0.2679,-0.8718 0.2679 -0.8718c 0.0945,-0.5305 0.0945,-1.2658 0.0945 -1.2658c 0.0000,-0.7353 -0.0945,-1.2605 -0.0945 -1.2605c -0.0945,-0.5252 -0.2679,-0.8561 -0.2679 -0.8561c -0.1733,-0.3309 -0.4097,-0.4884 -0.4097 -0.4884c -0.2363,-0.1576 -0.5305,-0.1576 -0.5305 -0.1576c -0.2941,-0.0000 -0.5357,0.1576 -0.5357 0.1576c -0.2416,0.1576 -0.4149,0.4884 -0.4149 0.4884c -0.1733,0.3309 -0.2679,0.8561 -0.2679 0.8561c -0.0945,0.5252 -0.0945,1.2605 -0.0945 1.2605c 0.0000,1.4706 0.3624,2.1376 0.3624 2.1376c 0.3624,0.6670 0.9506,0.6670 0.9506 0.6670Z"/></g><g stroke-linejoin="bevel" stroke-opacity="0.0" fill-opacity="1.0" stroke="rgb(0,0,0)" stroke-width="0.0" fill="rgb(0,0,0)" stroke-linecap="butt" stroke-miterlimit="10.0"><path d="M 10.2521,38.4454 ZM 11.4601,36.6492 c 0.0000,0.2836 0.1103,0.5147 0.1103 0.5147c 0.1103,0.2311 0.3046,0.4044 0.3046 0.4044c 0.1943,0.1733 0.4569,0.2679 0.4569 0.2679c 0.2626,0.0945 0.5672,0.0945 0.5672 0.0945c 0.5882,0.0000 0.9506,-0.3256 0.9506 -0.3256c 0.3624,-0.3256 0.3624,-0.8508 0.3624 -0.8508c 0.0000,-0.3256 -0.1471,-0.5567 -0.1471 -0.5567c -0.1471,-0.2311 -0.3992,-0.4044 -0.3992 -0.4044c -0.2521,-0.1733 -0.5830,-0.3151 -0.5830 -0.3151c -0.3309,-0.1418 -0.6880,-0.2889 -0.6880 -0.2889c -0.3992,0.2731 -0.6670,0.6355 -0.6670 0.6355c -0.2679,0.3624 -0.2679,0.8246 -0.2679 0.8246ZM 11.4601,36.6492 ZM 13.3508,34.7899 c 0.3361,-0.3046 0.5200,-0.6408 0.5200 -0.6408c 0.1838,-0.3361 0.1838,-0.7038 0.1838 -0.7038c 0.0000,-0.5042 -0.3046,-0.8456 -0.3046 -0.8456c -0.3046,-0.3414 -0.8613,-0.3414 -0.8613 -0.3414c -0.4727,-0.0000 -0.7773,0.2941 -0.7773 0.2941c -0.3046,0.2941 -0.3046,0.7878 -0.3046 0.7878c 0.0000,0.3046 0.1261,0.5200 0.1261 0.5200c 0.1261,0.2153 0.3414,0.3834 0.3414 0.3834c 0.2153,0.1681 0.4937,0.2994 0.4937 0.2994c 0.2784,0.1313 0.5830,0.2468 0.5830 0.2468ZM 13.3508,34.7899 ZM 10.6828,36.7332 c 0.0000,-0.3256 0.1103,-0.6040 0.1103 -0.6040c 0.1103,-0.2784 0.2836,-0.5042 0.2836 -0.5042c 0.1733,-0.2258 0.3992,-0.3992 0.3992 -0.3992c 0.2258,-0.1733 0.4674,-0.2994 0.4674 -0.2994v -0.0420 c -0.3676,-0.2626 -0.6513,-0.6355 -0.6513 -0.6355c -0.2836,-0.3729 -0.2836,-0.9086 -0.2836 -0.9086c 0.0000,-0.3887 0.1471,-0.7038 0.1471 -0.7038c 0.1471,-0.3151 0.3992,-0.5410 0.3992 -0.5410c 0.2521,-0.2258 0.5987,-0.3519 0.5987 -0.3519c 0.3466,-0.1261 0.7563,-0.1261 0.7563 -0.1261c 0.4412,0.0000 0.7878,0.1313 0.7878 0.1313c 0.3466,0.1313 0.5935,0.3676 0.5935 0.3676c 0.2468,0.2363 0.3782,0.5672 0.3782 0.5672c 0.1313,0.3309 0.1313,0.7195 0.1313 0.7195c 0.0000,0.2626 -0.0893,0.5042 -0.0893 0.5042c -0.0893,0.2416 -0.2206,0.4517 -0.2206 0.4517c -0.1313,0.2101 -0.2941,0.3782 -0.2941 0.3782c -0.1628,0.1681 -0.3204,0.2836 -0.3204 0.2836v 0.0420 c 0.2206,0.1261 0.4307,0.2889 0.4307 0.2889c 0.2101,0.1628 0.3729,0.3676 0.3729 0.3676c 0.1628,0.2048 0.2626,0.4674 0.2626 0.4674c 0.0998,0.2626 0.0998,0.5987 0.0998 0.5987c 0.0000,0.3782 -0.1576,0.7038 -0.1576 0.7038c -0.1576,0.3256 -0.4412,0.5672 -0.4412 0.5672c -0.2836,0.2416 -0.6828,0.3782 -0.6828 0.3782c -0.3992,0.1366 -0.8824,0.1366 -0.8824 0.1366c -0.4727,-0.0000 -0.8771,-0.1366 -0.8771 -0.1366c -0.4044,-0.1366 -0.6933,-0.3834 -0.6933 -0.3834c -0.2889,-0.2468 -0.4569,-0.5830 -0.4569 -0.5830c -0.1681,-0.3361 -0.1681,-0.7353 -0.1681 -0.7353ZM 15.4727,38.4454 ZM 18.0882,38.5714 c -1.0189,-0.0000 -1.5861,-0.9034 -1.5861 -0.9034c -0.5672,-0.9034 -0.5672,-2.5945 -0.5672 -2.5945c 0.0000,-1.6912 0.5672,-2.5735 0.5672 -2.5735c 0.5672,-0.8824 1.5861,-0.8824 1.5861 -0.8824c 1.0084,0.0000 1.5756,0.8824 1.5756 0.8824c 0.5672,0.8824 0.5672,2.5735 0.5672 2.5735c 0.0000,1.6912 -0.5672,2.5945 -0.5672 2.5945c -0.5672,0.9034 -1.5756,0.9034 -1.5756 0.9034ZM 18.0882,38.5714 ZM 18.0882,37.8782 c 0.2941,0.0000 0.5305,-0.1628 0.5305 -0.1628c 0.2363,-0.1628 0.4097,-0.5042 0.4097 -0.5042c 0.1733,-0.3414 0.2679,-0.8718 0.2679 -0.8718c 0.0945,-0.5305 0.0945,-1.2658 0.0945 -1.2658c 0.0000,-0.7353 -0.0945,-1.2605 -0.0945 -1.2605c -0.0945,-0.5252 -0.2679,-0.8561 -0.2679 -0.8561c -0.1733,-0.3309 -0.4097,-0.4884 -0.4097 -0.4884c -0.2363,-0.1576 -0.5305,-0.1576 -0.5305 -0.1576c -0.2941,-0.0000 -0.5357,0.1576 -0.5357 0.1576c -0.2416,0.1576 -0.4149,0.4884 -0.4149 0.4884c -0.1733,0.3309 -0.2679,0.8561 -0.2679 0.8561c -0.0945,0.5252 -0.0945,1.2605 -0.0945 1.2605c 0.0000,1.4706 0.3624,2.1376 0.3624 2.1376c 0.3624,0.6670 0.9506,0.6670 0.9506 0.6670Z"/></g><g stroke-linejoin="miter" stroke-opacity="1.0" fill-opacity="0.0" stroke="rgb(0,0,0)" stroke-width="0.9999999999999997" fill="rgb(0,0,0)" stroke-linecap="square" stroke-miterlimit="10.0"><path d="M 29.8004,550.0000 h 755.2994 "/></g><g stroke-linejoin="miter" stroke-opacity="1.0" fill-opacity="0.0" stroke="rgb(0,0,0)" stroke-width="0.9999999999999997" fill="rgb(0,0,0)" stroke-linecap="butt" stroke-miterlimit="10.0"><path d="M 29.8004,550.0000 v -2.0000 "/></g><g stroke-linejoin="miter" stroke-opacity="1.0" fill-opacity="0.0" stroke="rgb(0,0,0)" stroke-width="0.9999999999999997" fill="rgb(0,0,0)" stroke-linecap="butt" stroke-miterlimit="10.0"><path d="M 124.2128,550.0000 v -2.0000 "/></g><g stroke-linejoin="miter" stroke-opacity="1.0" fill-opacity="0.0" stroke="rgb(0,0,0)" stroke-width="0.9999999999999997" fill="rgb(0,0,0)" stroke-linecap="butt" stroke-miterlimit="10.0"><path d="M 218.6253,550.0000 v -2.0000 "/></g><g stroke-linejoin="miter" stroke-opacity="1.0" fill-opacity="0.0" stroke="rgb(0,0,0)" stroke-width="0.9999999999999997" fill="rgb(0,0,0)" stroke-linecap="butt" stroke-miterlimit="10.0"><path d="M 313.0377,550.0000 v -2.0000 "/></g><g stroke-linejoin="miter" stroke-opacity="1.0" fill-opacity="0.0" stroke="rgb(0,0,0)" stroke-width="0.9999999999999997" fill="rgb(0,0,0)" stroke-linecap="butt" stroke-miterlimit="10.0"><path d="M 407.4501,550.0000 v -2.0000 "/></g><g stroke-linejoin="miter" stroke-opacity="1.0" fill-opacity="0.0" stroke="rgb(0,0,0)" stroke-width="0.9999999999999997" fill="rgb(0,0,0)" stroke-linecap="butt" stroke-miterlimit="10.0"><path d="M 501.8625,550.0000 v -2.0000 "/></g><g stroke-linejoin="miter" stroke-opacity="1.0" fill-opacity="0.0" stroke="rgb(0,0,0)" stroke-width="0.9999999999999997" fill="rgb(0,0,0)" stroke-linecap="butt" stroke-miterlimit="10.0"><path d="M 596.2749,550.0000 v -2.0000 "/></g><g stroke-linejoin="miter" stroke-opacity="1.0" fill-opacity="0.0" stroke="rgb(0,0,0)" stroke-width="0.9999999999999997" fill="rgb(0,0,0)" stroke-linecap="butt" stroke-miterlimit="10.0"><path d="M 690.6874,550.0000 v -2.0000 "/></g><g stroke-linejoin="miter" stroke-opacity="1.0" fill-opacity="0.0" stroke="rgb(0,0,0)" stroke-width="0.9999999999999997" fill="rgb(0,0,0)" stroke-linecap="butt" stroke-miterlimit="10.0"><path d="M 785.0998,550.0000 v -2.0000 "/></g><g stroke-linejoin="miter" stroke-opacity="1.0" fill-opacity="0.0" stroke="rgb(0,0,0)" stroke-width="0.9999999999999997" fill="rgb(0,0,0)" stroke-linecap="butt" stroke-miterlimit="10.0"><path d="M 29.8004,550.0000 v -5.0000 "/></g><g stroke-linejoin="miter" stroke-opacity="1.0" fill-opacity="0.0" stroke="rgb(0,0,0)" stroke-width="0.9999999999999997" fill="rgb(0,0,0)" stroke-linecap="butt" stroke-miterlimit="10.0"><path d="M 218.6253,550.0000 v -5.0000 "/></g><g stroke-linejoin="miter" stroke-opacity="1.0" fill-opacity="0.0" stroke="rgb(0,0,0)" stroke-width="0.9999999999999997" fill="rgb(0,0,0)" stroke-linecap="butt" stroke-miterlimit="10.0"><path d="M 407.4501,550.0000 v -5.0000 "/></g><g stroke-linejoin="miter" stroke-opacity="1.0" fill-opacity="0.0" stroke="rgb(0,0,0)" stroke-width="0.9999999999999997" fill="rgb(0,0,0)" stroke-linecap="butt" stroke-miterlimit="10.0"><path d="M 596.2749,550.0000 v -5.0000 "/></g><g stroke-linejoin="miter" stroke-opacity="1.0" fill-opacity="0.0" stroke="rgb(0,0,0)" stroke-width="0.9999999999999997" fill="rgb(0,0,0)" stroke-linecap="butt" stroke-miterlimit="10.0"><path d="M 785.0998,550.0000 v -5.0000 "/></g><g stroke-linejoin="bevel" stroke-opacity="0.0" fill-opacity="1.0" stroke="rgb(0,0,0)" stroke-width="0.0" fill="rgb(0,0,0)" stroke-linecap="butt" stroke-miterlimit="10.0"><path d="M 27.6523,570.0000 ZM 30.2679,570.1261 c -1.0189,-0.0000 -1.5861,-0.9034 -1.5861 -0.9034c -0.5672,-0.9034 -0.5672,-2.5945 -0.5672 -2.5945c 0.0000,-1.6912 0.5672,-2.5735 0.5672 -2.5735c 0.5672,-0.8824 1.5861,-0.8824 1.5861 -0.8824c 1.0084,0.0000 1.5756,0.8824 1.5756 0.8824c 0.5672,0.8824 0.5672,2.5735 0.5672 2.5735c 0.0000,1.6912 -0.5672,2.5945 -0.5672 2.5945c -0.5672,0.9034 -1.5756,0.9034 -1.5756 0.9034ZM 30.2679,570.1261 ZM 30.2679,569.4328 c 0.2941,0.0000 0.5305,-0.1628 0.5305 -0.1628c 0.2363,-0.1628 0.4097,-0.5042 0.4097 -0.5042c 0.1733,-0.3414 0.2679,-0.8718 0.2679 -0.8718c 0.0945,-0.5305 0.0945,-1.2658 0.0945 -1.2658c 0.0000,-0.7353 -0.0945,-1.2605 -0.0945 -1.2605c -0.0945,-0.5252 -0.2679,-0.8561 -0.2679 -0.8561c -0.1733,-0.3309 -0.4097,-0.4884 -0.4097 -0.4884c -0.2363,-0.1576 -0.5305,-0.1576 -0.5305 -0.1576c -0.2941,-0.0000 -0.5357,0.1576 -0.5357 0.1576c -0.2416,0.1576 -0.4149,0.4884 -0.4149 0.4884c -0.1733,0.3309 -0.2679,0.8561 -0.2679 0.8561c -0.0945,0.5252 -0.0945,1.2605 -0.0945 1.2605c 0.0000,1.4706 0.3624,2.1376 0.3624 2.1376c 0.3624,0.6670 0.9506,0.6670 0.9506 0.6670Z"/></g><g stroke-linejoin="bevel" stroke-opacity="0.0" fill-opacity="1.0" stroke="rgb(0,0,0)" stroke-width="0.0" fill="rgb(0,0,0)" stroke-linecap="butt" stroke-miterlimit="10.0"><path d="M 214.0507,570.0000 ZM 214.8805,569.2857 h 1.5336 v -4.9370 h -1.2185 v -0.5567 c 0.4622,-0.0840 0.8036,-0.2048 0.8036 -0.2048c 0.3414,-0.1208 0.6145,-0.2889 0.6145 -0.2889h 0.6618 v 5.9874 h 1.3866 v 0.7143 h -3.7815 v -0.7143 ZM 219.2713,570.0000 ZM 221.8868,570.1261 c -1.0189,-0.0000 -1.5861,-0.9034 -1.5861 -0.9034c -0.5672,-0.9034 -0.5672,-2.5945 -0.5672 -2.5945c 0.0000,-1.6912 0.5672,-2.5735 0.5672 -2.5735c 0.5672,-0.8824 1.5861,-0.8824 1.5861 -0.8824c 1.0084,0.0000 1.5756,0.8824 1.5756 0.8824c 0.5672,0.8824 0.5672,2.5735 0.5672 2.5735c 0.0000,1.6912 -0.5672,2.5945 -0.5672 2.5945c -0.5672,0.9034 -1.5756,0.9034 -1.5756 0.9034ZM 221.8868,570.1261 ZM 221.8868,569.4328 c 0.2941,0.0000 0.5305,-0.1628 0.5305 -0.1628c 0.2363,-0.1628 0.4097,-0.5042 0.4097 -0.5042c 0.1733,-0.3414 0.2679,-0.8718 0.2679 -0.8718c 0.0945,-0.5305 0.0945,-1.2658 0.0945 -1.2658c 0.0000,-0.7353 -0.0945,-1.2605 -0.0945 -1.2605c -0.0945,-0.5252 -0.2679,-0.8561 -0.2679 -0.8561c -0.1733,-0.3309 -0.4097,-0.4884 -0.4097 -0.4884c -0.2363,-0.1576 -0.5305,-0.1576 -0.5305 -0.1576c -0.2941,-0.0000 -0.5357,0.1576 -0.5357 0.1576c -0.2416,0.1576 -0.4149,0.4884 -0.4149 0.4884c -0.1733,0.3309 -0.2679,0.8561 -0.2679 0.8561c -0.0945,0.5252 -0.0945,1.2605 -0.0945 1.2605c 0.0000,1.4706 0.3624,2.1376 0.3624 2.1376c 0.3624,0.6670 0.9506,0.6670 0.9506 0.6670Z"/></g><g stroke-linejoin="bevel" stroke-opacity="0.0" fill-opacity="1.0" stroke="rgb(0,0,0)" stroke-width="0.0" fill="rgb(0,0,0)" stroke-linecap="butt" stroke-miterlimit="10.0"><path d="M 402.6497,570.0000 ZM 403.0699,569.4853 c 0.7563,-0.7563 1.3445,-1.3655 1.3445 -1.3655c 0.5882,-0.6092 0.9874,-1.1292 0.9874 -1.1292c 0.3992,-0.5200 0.6092,-0.9559 0.6092 -0.9559c 0.2101,-0.4359 0.2101,-0.8456 0.2101 -0.8456c 0.0000,-0.5777 -0.3151,-0.9454 -0.3151 -0.9454c -0.3151,-0.3676 -0.9559,-0.3676 -0.9559 -0.3676c -0.4202,-0.0000 -0.7773,0.2363 -0.7773 0.2363c -0.3571,0.2363 -0.6513,0.5725 -0.6513 0.5725l -0.4937,-0.4937 c 0.4202,-0.4622 0.8929,-0.7405 0.8929 -0.7405c 0.4727,-0.2784 1.1345,-0.2784 1.1345 -0.2784c 0.9349,0.0000 1.4706,0.5410 1.4706 0.5410c 0.5357,0.5410 0.5357,1.4338 0.5357 1.4338c 0.0000,0.4727 -0.2048,0.9506 -0.2048 0.9506c -0.2048,0.4779 -0.5672,0.9874 -0.5672 0.9874c -0.3624,0.5095 -0.8613,1.0609 -0.8613 1.0609c -0.4989,0.5515 -1.0977,1.1712 -1.0977 1.1712c 0.2731,-0.0210 0.5672,-0.0420 0.5672 -0.0420c 0.2941,-0.0210 0.5567,-0.0210 0.5567 -0.0210h 1.9433 v 0.7458 h -4.3277 v -0.5147 ZM 407.8703,570.0000 ZM 410.4858,570.1261 c -1.0189,-0.0000 -1.5861,-0.9034 -1.5861 -0.9034c -0.5672,-0.9034 -0.5672,-2.5945 -0.5672 -2.5945c 0.0000,-1.6912 0.5672,-2.5735 0.5672 -2.5735c 0.5672,-0.8824 1.5861,-0.8824 1.5861 -0.8824c 1.0084,0.0000 1.5756,0.8824 1.5756 0.8824c 0.5672,0.8824 0.5672,2.5735 0.5672 2.5735c 0.0000,1.6912 -0.5672,2.5945 -0.5672 2.5945c -0.5672,0.9034 -1.5756,0.9034 -1.5756 0.9034ZM 410.4858,570.1261 ZM 410.4858,569.4328 c 0.2941,0.0000 0.5305,-0.1628 0.5305 -0.1628c 0.2363,-0.1628 0.4097,-0.5042 0.4097 -0.5042c 0.1733,-0.3414 0.2679,-0.8718 0.2679 -0.8718c 0.0945,-0.5305 0.0945,-1.2658 0.0945 -1.2658c 0.0000,-0.7353 -0.0945,-1.2605 -0.0945 -1.2605c -0.0945,-0.5252 -0.2679,-0.8561 -0.2679 -0.8561c -0.1733,-0.3309 -0.4097,-0.4884 -0.4097 -0.4884c -0.2363,-0.1576 -0.5305,-0.1576 -0.5305 -0.1576c -0.2941,-0.0000 -0.5357,0.1576 -0.5357 0.1576c -0.2416,0.1576 -0.4149,0.4884 -0.4149 0.4884c -0.1733,0.3309 -0.2679,0.8561 -0.2679 0.8561c -0.0945,0.5252 -0.0945,1.2605 -0.0945 1.2605c 0.0000,1.4706 0.3624,2.1376 0.3624 2.1376c 0.3624,0.6670 0.9506,0.6670 0.9506 0.6670Z"/></g><g stroke-linejoin="bevel" stroke-opacity="0.0" fill-opacity="1.0" stroke="rgb(0,0,0)" stroke-width="0.0" fill="rgb(0,0,0)" stroke-linecap="butt" stroke-miterlimit="10.0"><path d="M 591.4220,570.0000 ZM 592.1363,568.6134 c 0.3046,0.3151 0.7090,0.5567 0.7090 0.5567c 0.4044,0.2416 1.0032,0.2416 1.0032 0.2416c 0.6092,0.0000 0.9979,-0.3309 0.9979 -0.3309c 0.3887,-0.3309 0.3887,-0.8981 0.3887 -0.8981c 0.0000,-0.2941 -0.1103,-0.5410 -0.1103 -0.5410c -0.1103,-0.2468 -0.3624,-0.4254 -0.3624 -0.4254c -0.2521,-0.1786 -0.6618,-0.2731 -0.6618 -0.2731c -0.4097,-0.0945 -1.0084,-0.0945 -1.0084 -0.0945v -0.6618 c 0.5357,0.0000 0.8981,-0.0945 0.8981 -0.0945c 0.3624,-0.0945 0.5882,-0.2626 0.5882 -0.2626c 0.2258,-0.1681 0.3204,-0.3992 0.3204 -0.3992c 0.0945,-0.2311 0.0945,-0.4937 0.0945 -0.4937c 0.0000,-0.4937 -0.3099,-0.7773 -0.3099 -0.7773c -0.3099,-0.2836 -0.8456,-0.2836 -0.8456 -0.2836c -0.4202,-0.0000 -0.7721,0.1891 -0.7721 0.1891c -0.3519,0.1891 -0.6565,0.4937 -0.6565 0.4937l -0.4622,-0.5462 c 0.3887,-0.3676 0.8561,-0.6040 0.8561 -0.6040c 0.4674,-0.2363 1.0662,-0.2363 1.0662 -0.2363c 0.4412,0.0000 0.8088,0.1155 0.8088 0.1155c 0.3676,0.1155 0.6355,0.3309 0.6355 0.3309c 0.2679,0.2153 0.4149,0.5305 0.4149 0.5305c 0.1471,0.3151 0.1471,0.7248 0.1471 0.7248c 0.0000,0.6092 -0.3361,0.9979 -0.3361 0.9979c -0.3361,0.3887 -0.8824,0.5987 -0.8824 0.5987v 0.0420 c 0.3046,0.0735 0.5672,0.2153 0.5672 0.2153c 0.2626,0.1418 0.4622,0.3571 0.4622 0.3571c 0.1996,0.2153 0.3099,0.4989 0.3099 0.4989c 0.1103,0.2836 0.1103,0.6303 0.1103 0.6303c 0.0000,0.4412 -0.1733,0.7983 -0.1733 0.7983c -0.1733,0.3571 -0.4727,0.6040 -0.4727 0.6040c -0.2994,0.2468 -0.6985,0.3782 -0.6985 0.3782c -0.3992,0.1313 -0.8613,0.1313 -0.8613 0.1313c -0.3992,-0.0000 -0.7300,-0.0788 -0.7300 -0.0788c -0.3309,-0.0788 -0.6040,-0.2101 -0.6040 -0.2101c -0.2731,-0.1313 -0.4884,-0.2994 -0.4884 -0.2994c -0.2153,-0.1681 -0.3834,-0.3571 -0.3834 -0.3571ZM 596.6426,570.0000 ZM 599.2581,570.1261 c -1.0189,-0.0000 -1.5861,-0.9034 -1.5861 -0.9034c -0.5672,-0.9034 -0.5672,-2.5945 -0.5672 -2.5945c 0.0000,-1.6912 0.5672,-2.5735 0.5672 -2.5735c 0.5672,-0.8824 1.5861,-0.8824 1.5861 -0.8824c 1.0084,0.0000 1.5756,0.8824 1.5756 0.8824c 0.5672,0.8824 0.5672,2.5735 0.5672 2.5735c 0.0000,1.6912 -0.5672,2.5945 -0.5672 2.5945c -0.5672,0.9034 -1.5756,0.9034 -1.5756 0.9034ZM 599.2581,570.1261 ZM 599.2581,569.4328 c 0.2941,0.0000 0.5305,-0.1628 0.5305 -0.1628c 0.2363,-0.1628 0.4097,-0.5042 0.4097 -0.5042c 0.1733,-0.3414 0.2679,-0.8718 0.2679 -0.8718c 0.0945,-0.5305 0.0945,-1.2658 0.0945 -1.2658c 0.0000,-0.7353 -0.0945,-1.2605 -0.0945 -1.2605c -0.0945,-0.5252 -0.2679,-0.8561 -0.2679 -0.8561c -0.1733,-0.3309 -0.4097,-0.4884 -0.4097 -0.4884c -0.2363,-0.1576 -0.5305,-0.1576 -0.5305 -0.1576c -0.2941,-0.0000 -0.5357,0.1576 -0.5357 0.1576c -0.2416,0.1576 -0.4149,0.4884 -0.4149 0.4884c -0.1733,0.3309 -0.2679,0.8561 -0.2679 0.8561c -0.0945,0.5252 -0.0945,1.2605 -0.0945 1.2605c 0.0000,1.4706 0.3624,2.1376 0.3624 2.1376c 0.3624,0.6670 0.9506,0.6670 0.9506 0.6670Z"/></g><g stroke-linejoin="bevel" stroke-opacity="0.0" fill-opacity="1.0" stroke="rgb(0,0,0)" stroke-width="0.0" fill="rgb(0,0,0)" stroke-linecap="butt" stroke-miterlimit="10.0"><path d="M 780.1996,570.0000 ZM 783.3929,567.4580 v -1.9433 c 0.0000,-0.2731 0.0158,-0.6460 0.0158 -0.6460c 0.0158,-0.3729 0.0368,-0.6460 0.0368 -0.6460h -0.0420 c -0.1261,0.2416 -0.2626,0.4727 -0.2626 0.4727c -0.1366,0.2311 -0.2836,0.4727 -0.2836 0.4727l -1.5651,2.2899 h 2.1008 ZM 783.3929,567.4580 ZM 785.1261,568.1513 h -0.9139 v 1.8487 h -0.8193 v -1.8487 h -3.0147 v -0.5672 l 2.8676,-4.2857 h 0.9664 v 4.1597 h 0.9139 v 0.6933 ZM 785.4202,570.0000 ZM 788.0357,570.1261 c -1.0189,-0.0000 -1.5861,-0.9034 -1.5861 -0.9034c -0.5672,-0.9034 -0.5672,-2.5945 -0.5672 -2.5945c 0.0000,-1.6912 0.5672,-2.5735 0.5672 -2.5735c 0.5672,-0.8824 1.5861,-0.8824 1.5861 -0.8824c 1.0084,0.0000 1.5756,0.8824 1.5756 0.8824c 0.5672,0.8824 0.5672,2.5735 0.5672 2.5735c 0.0000,1.6912 -0.5672,2.5945 -0.5672 2.5945c -0.5672,0.9034 -1.5756,0.9034 -1.5756 0.9034ZM 788.0357,570.1261 ZM 788.0357,569.4328 c 0.2941,0.0000 0.5305,-0.1628 0.5305 -0.1628c 0.2363,-0.1628 0.4097,-0.5042 0.4097 -0.5042c 0.1733,-0.3414 0.2679,-0.8718 0.2679 -0.8718c 0.0945,-0.5305 0.0945,-1.2658 0.0945 -1.2658c 0.0000,-0.7353 -0.0945,-1.2605 -0.0945 -1.2605c -0.0945,-0.5252 -0.2679,-0.8561 -0.2679 -0.8561c -0.1733,-0.3309 -0.4097,-0.4884 -0.4097 -0.4884c -0.2363,-0.1576 -0.5305,-0.1576 -0.5305 -0.1576c -0.2941,-0.0000 -0.5357,0.1576 -0.5357 0.1576c -0.2416,0.1576 -0.4149,0.4884 -0.4149 0.4884c -0.1733,0.3309 -0.2679,0.8561 -0.2679 0.8561c -0.0945,0.5252 -0.0945,1.2605 -0.0945 1.2605c 0.0000,1.4706 0.3624,2.1376 0.3624 2.1376c 0.3624,0.6670 0.9506,0.6670 0.9506 0.6670Z"/></g><g stroke-linejoin="round" stroke-opacity="1.0" fill-opacity="0.0" stroke="rgb(0,0,255)" stroke-width="0.9999999999999997" fill="rgb(0,0,0)" stroke-linecap="round" stroke-miterlimit="10.0"><path d="M 10.0000,585.0000 h 20.0000 "/></g><g stroke-linejoin="round" stroke-opacity="1.0" fill-opacity="0.0" stroke="rgb(0,128,0)" stroke-width="0.9999999999999997" fill="rgb(0,0,0)" stroke-linecap="round" stroke-miterlimit="10.0"><path d="M 35.0735,585.0000 h 20.0000 "/></g><g stroke-linejoin="round" stroke-opacity="1.0" fill-opacity="0.0" stroke="rgb(255,0,0)" stroke-width="0.9999999999999997" fill="rgb(0,0,0)" stroke-linecap="round" stroke-miterlimit="10.0"><path d="M 60.1471,585.0000 h 20.0000 "/></g><g stroke-linejoin="round" stroke-opacity="1.0" fill-opacity="0.0" stroke="rgb(255,165,0)" stroke-width="0.9999999999999997" fill="rgb(0,0,0)" stroke-linecap="round" stroke-miterlimit="10.0"><path d="M 85.2206,585.0000 h 20.0000 "/></g><g stroke-linejoin="round" stroke-opacity="1.0" fill-opacity="0.0" stroke="rgb(255,255,0)" stroke-width="0.9999999999999997" fill="rgb(0,0,0)" stroke-linecap="round" stroke-miterlimit="10.0"><path d="M 110.2941,585.0000 h 20.0000 "/></g><g stroke-linejoin="bevel" stroke-opacity="0.0" fill-opacity="1.0" stroke="rgb(0,0,0)" stroke-width="0.0" fill="rgb(0,0,0)" stroke-linecap="butt" stroke-miterlimit="10.0"><path d="M 135.3676,586.6071 ZM 135.9139,583.1618 c 0.0000,-0.8298 0.2363,-1.4916 0.2363 -1.4916c 0.2363,-0.6618 0.6618,-1.1239 0.6618 -1.1239c 0.4254,-0.4622 1.0032,-0.7090 1.0032 -0.7090c 0.5777,-0.2468 1.2710,-0.2468 1.2710 -0.2468c 0.7143,0.0000 1.1922,0.2679 1.1922 0.2679c 0.4779,0.2679 0.7826,0.5830 0.7826 0.5830l -0.4937,0.5567 c -0.2626,-0.2731 -0.6040,-0.4569 -0.6040 -0.4569c -0.3414,-0.1838 -0.8666,-0.1838 -0.8666 -0.1838c -0.5252,-0.0000 -0.9454,0.1943 -0.9454 0.1943c -0.4202,0.1943 -0.7143,0.5567 -0.7143 0.5567c -0.2941,0.3624 -0.4569,0.8771 -0.4569 0.8771c -0.1628,0.5147 -0.1628,1.1555 -0.1628 1.1555c 0.0000,0.6513 0.1523,1.1712 0.1523 1.1712c 0.1523,0.5200 0.4412,0.8876 0.4412 0.8876c 0.2889,0.3676 0.7143,0.5672 0.7143 0.5672c 0.4254,0.1996 0.9821,0.1996 0.9821 0.1996c 0.3676,0.0000 0.6985,-0.1103 0.6985 -0.1103c 0.3309,-0.1103 0.5410,-0.2994 0.5410 -0.2994v -1.7962 h -1.4601 v -0.7248 h 2.2584 v 2.8992 c -0.3361,0.3466 -0.8876,0.5725 -0.8876 0.5725c -0.5515,0.2258 -1.2447,0.2258 -1.2447 0.2258c -0.6828,-0.0000 -1.2500,-0.2416 -1.2500 -0.2416c -0.5672,-0.2416 -0.9769,-0.6985 -0.9769 -0.6985c -0.4097,-0.4569 -0.6408,-1.1239 -0.6408 -1.1239c -0.2311,-0.6670 -0.2311,-1.5074 -0.2311 -1.5074ZM 141.8487,586.6071 ZM 142.7101,581.5021 h 0.7143 l 0.0735,0.9244 h 0.0315 c 0.2626,-0.4832 0.6355,-0.7668 0.6355 -0.7668c 0.3729,-0.2836 0.8141,-0.2836 0.8141 -0.2836c 0.3046,0.0000 0.5462,0.1050 0.5462 0.1050l -0.1681,0.7563 c -0.1261,-0.0420 -0.2311,-0.0630 -0.2311 -0.0630c -0.1050,-0.0210 -0.2626,-0.0210 -0.2626 -0.0210c -0.3256,-0.0000 -0.6775,0.2626 -0.6775 0.2626c -0.3519,0.2626 -0.6145,0.9139 -0.6145 0.9139v 3.2773 h -0.8613 v -5.1050 ZM 145.3887,586.6071 ZM 145.8718,584.0651 c 0.0000,-0.6408 0.1943,-1.1397 0.1943 -1.1397c 0.1943,-0.4989 0.5200,-0.8456 0.5200 -0.8456c 0.3256,-0.3466 0.7511,-0.5252 0.7511 -0.5252c 0.4254,-0.1786 0.8981,-0.1786 0.8981 -0.1786c 0.4727,0.0000 0.8981,0.1786 0.8981 0.1786c 0.4254,0.1786 0.7511,0.5252 0.7511 0.5252c 0.3256,0.3466 0.5200,0.8456 0.5200 0.8456c 0.1943,0.4989 0.1943,1.1397 0.1943 1.1397c 0.0000,0.6303 -0.1943,1.1292 -0.1943 1.1292c -0.1943,0.4989 -0.5200,0.8403 -0.5200 0.8403c -0.3256,0.3414 -0.7511,0.5200 -0.7511 0.5200c -0.4254,0.1786 -0.8981,0.1786 -0.8981 0.1786c -0.4727,-0.0000 -0.8981,-0.1786 -0.8981 -0.1786c -0.4254,-0.1786 -0.7511,-0.5200 -0.7511 -0.5200c -0.3256,-0.3414 -0.5200,-0.8403 -0.5200 -0.8403c -0.1943,-0.4989 -0.1943,-1.1292 -0.1943 -1.1292ZM 145.8718,584.0651 ZM 146.7647,584.0651 c 0.0000,0.4412 0.1050,0.7983 0.1050 0.7983c 0.1050,0.3571 0.2994,0.6145 0.2994 0.6145c 0.1943,0.2574 0.4674,0.3992 0.4674 0.3992c 0.2731,0.1418 0.5987,0.1418 0.5987 0.1418c 0.3256,0.0000 0.5987,-0.1418 0.5987 -0.1418c 0.2731,-0.1418 0.4674,-0.3992 0.4674 -0.3992c 0.1943,-0.2574 0.2994,-0.6145 0.2994 -0.6145c 0.1050,-0.3571 0.1050,-0.7983 0.1050 -0.7983c 0.0000,-0.4412 -0.1050,-0.8036 -0.1050 -0.8036c -0.1050,-0.3624 -0.2994,-0.6250 -0.2994 -0.6250c -0.1943,-0.2626 -0.4674,-0.4044 -0.4674 -0.4044c -0.2731,-0.1418 -0.5987,-0.1418 -0.5987 -0.1418c -0.3256,-0.0000 -0.5987,0.1418 -0.5987 0.1418c -0.2731,0.1418 -0.4674,0.4044 -0.4674 0.4044c -0.1943,0.2626 -0.2994,0.6250 -0.2994 0.6250c -0.1050,0.3624 -0.1050,0.8036 -0.1050 0.8036ZM 151.0819,586.6071 ZM 151.8697,581.5021 h 0.8718 v 3.1197 c 0.0000,0.7248 0.2258,1.0452 0.2258 1.0452c 0.2258,0.3204 0.7300,0.3204 0.7300 0.3204c 0.3992,0.0000 0.7038,-0.2048 0.7038 -0.2048c 0.3046,-0.2048 0.6723,-0.6565 0.6723 -0.6565v -3.6239 h 0.8613 v 5.1050 h -0.7143 l -0.0735,-0.7983 h -0.0315 c -0.3571,0.4202 -0.7511,0.6723 -0.7511 0.6723c -0.3939,0.2521 -0.9296,0.2521 -0.9296 0.2521c -0.8193,-0.0000 -1.1922,-0.5042 -1.1922 -0.5042c -0.3729,-0.5042 -0.3729,-1.4916 -0.3729 -1.4916v -3.2353 ZM 156.7962,586.6071 ZM 158.5189,587.0378 v 1.7227 h -0.8613 v -7.2584 h 0.7143 l 0.0735,0.5882 h 0.0315 c 0.3466,-0.2941 0.7616,-0.5042 0.7616 -0.5042c 0.4149,-0.2101 0.8666,-0.2101 0.8666 -0.2101c 0.4937,0.0000 0.8718,0.1838 0.8718 0.1838c 0.3782,0.1838 0.6303,0.5252 0.6303 0.5252c 0.2521,0.3414 0.3834,0.8193 0.3834 0.8193c 0.1313,0.4779 0.1313,1.0767 0.1313 1.0767c 0.0000,0.6513 -0.1786,1.1607 -0.1786 1.1607c -0.1786,0.5095 -0.4832,0.8666 -0.4832 0.8666c -0.3046,0.3571 -0.7038,0.5410 -0.7038 0.5410c -0.3992,0.1838 -0.8403,0.1838 -0.8403 0.1838c -0.3571,-0.0000 -0.7090,-0.1576 -0.7090 -0.1576c -0.3519,-0.1576 -0.7090,-0.4307 -0.7090 -0.4307ZM 158.5189,587.0378 ZM 158.5189,585.4727 c 0.3466,0.2941 0.6723,0.4149 0.6723 0.4149c 0.3256,0.1208 0.5777,0.1208 0.5777 0.1208c 0.3151,0.0000 0.5830,-0.1418 0.5830 -0.1418c 0.2679,-0.1418 0.4622,-0.3992 0.4622 -0.3992c 0.1943,-0.2574 0.3046,-0.6355 0.3046 -0.6355c 0.1103,-0.3782 0.1103,-0.8508 0.1103 -0.8508c 0.0000,-0.4202 -0.0735,-0.7668 -0.0735 -0.7668c -0.0735,-0.3466 -0.2363,-0.5935 -0.2363 -0.5935c -0.1628,-0.2468 -0.4202,-0.3834 -0.4202 -0.3834c -0.2574,-0.1366 -0.6145,-0.1366 -0.6145 -0.1366c -0.3256,-0.0000 -0.6565,0.1786 -0.6565 0.1786c -0.3309,0.1786 -0.7090,0.5147 -0.7090 0.5147v 2.6786 Z"/></g><g stroke-linejoin="bevel" stroke-opacity="0.0" fill-opacity="1.0" stroke="rgb(0,0,0)" stroke-width="0.0" fill="rgb(238,130,238)" stroke-linecap="butt" stroke-miterlimit="10.0"><path d="M 183.5756,585.0000 c 0.0000,1.1046 -0.8954,2.0000 -2.0000 2.0000c -1.1046,0.0000 -2.0000,-0.8954 -2.0000 -2.0000c -0.0000,-1.1046 0.8954,-2.0000 2.0000 -2.0000c 1.1046,-0.0000 2.0000,0.8954 2.0000 2.0000Z"/></g><g stroke-linejoin="bevel" stroke-opacity="0.0" fill-opacity="0.0" stroke="rgb(0,0,0)" stroke-width="0.0" fill="rgb(0,0,0)" stroke-linecap="butt" stroke-miterlimit="10.0"><path d="M 183.5756,585.0000 c 0.0000,1.1046 -0.8954,2.0000 -2.0000 2.0000c -1.1046,0.0000 -2.0000,-0.8954 -2.0000 -2.0000c -0.0000,-1.1046 0.8954,-2.0000 2.0000 -2.0000c 1.1046,-0.0000 2.0000,0.8954 2.0000 2.0000"/></g><g stroke-linejoin="bevel" stroke-opacity="0.0" fill-opacity="1.0" stroke="rgb(0,0,0)" stroke-width="0.0" fill="rgb(238,130,238)" stroke-linecap="butt" stroke-miterlimit="10.0"><path d="M 193.5756,585.0000 c 0.0000,1.1046 -0.8954,2.0000 -2.0000 2.0000c -1.1046,0.0000 -2.0000,-0.8954 -2.0000 -2.0000c -0.0000,-1.1046 0.8954,-2.0000 2.0000 -2.0000c 1.1046,-0.0000 2.0000,0.8954 2.0000 2.0000Z"/></g><g stroke-linejoin="bevel" stroke-opacity="0.0" fill-opacity="0.0" stroke="rgb(0,0,0)" stroke-width="0.0" fill="rgb(0,0,0)" stroke-linecap="butt" stroke-miterlimit="10.0"><path d="M 193.5756,585.0000 c 0.0000,1.1046 -0.8954,2.0000 -2.0000 2.0000c -1.1046,0.0000 -2.0000,-0.8954 -2.0000 -2.0000c -0.0000,-1.1046 0.8954,-2.0000 2.0000 -2.0000c 1.1046,-0.0000 2.0000,0.8954 2.0000 2.0000"/></g><g stroke-linejoin="bevel" stroke-opacity="0.0" fill-opacity="1.0" stroke="rgb(0,0,0)" stroke-width="0.0" fill="rgb(238,130,238)" stroke-linecap="butt" stroke-miterlimit="10.0"><path d="M 203.5756,585.0000 c 0.0000,1.1046 -0.8954,2.0000 -2.0000 2.0000c -1.1046,0.0000 -2.0000,-0.8954 -2.0000 -2.0000c -0.0000,-1.1046 0.8954,-2.0000 2.0000 -2.0000c 1.1046,-0.0000 2.0000,0.8954 2.0000 2.0000Z"/></g><g stroke-linejoin="bevel" stroke-opacity="0.0" fill-opacity="0.0" stroke="rgb(0,0,0)" stroke-width="0.0" fill="rgb(0,0,0)" stroke-linecap="butt" stroke-miterlimit="10.0"><path d="M 203.5756,585.0000 c 0.0000,1.1046 -0.8954,2.0000 -2.0000 2.0000c -1.1046,0.0000 -2.0000,-0.8954 -2.0000 -2.0000c -0.0000,-1.1046 0.8954,-2.0000 2.0000 -2.0000c 1.1046,-0.0000 2.0000,0.8954 2.0000 2.0000"/></g><g stroke-linejoin="bevel" stroke-opacity="0.0" fill-opacity="1.0" stroke="rgb(0,0,0)" stroke-width="0.0" fill="rgb(0,0,0)" stroke-linecap="butt" stroke-miterlimit="10.0"><path d="M 206.6492,586.6071 ZM 207.5945,579.7164 h 1.7227 c 1.5966,0.0000 2.4265,0.8824 2.4265 0.8824c 0.8298,0.8824 0.8298,2.5315 0.8298 2.5315c 0.0000,0.8193 -0.2101,1.4653 -0.2101 1.4653c -0.2101,0.6460 -0.6197,1.0924 -0.6197 1.0924c -0.4097,0.4464 -1.0084,0.6828 -1.0084 0.6828c -0.5987,0.2363 -1.3761,0.2363 -1.3761 0.2363h -1.7647 v -6.8908 ZM 207.5945,579.7164 ZM 209.2542,585.8929 c 1.2080,0.0000 1.8120,-0.7248 1.8120 -0.7248c 0.6040,-0.7248 0.6040,-2.0378 0.6040 -2.0378c 0.0000,-1.3130 -0.6040,-2.0063 -0.6040 -2.0063c -0.6040,-0.6933 -1.8120,-0.6933 -1.8120 -0.6933h -0.7878 v 5.4622 h 0.7878 ZM 213.1092,586.6071 ZM 213.5924,584.0651 c 0.0000,-0.6303 0.1943,-1.1292 0.1943 -1.1292c 0.1943,-0.4989 0.5147,-0.8456 0.5147 -0.8456c 0.3204,-0.3466 0.7300,-0.5305 0.7300 -0.5305c 0.4097,-0.1838 0.8508,-0.1838 0.8508 -0.1838c 0.4832,0.0000 0.8666,0.1681 0.8666 0.1681c 0.3834,0.1681 0.6408,0.4832 0.6408 0.4832c 0.2574,0.3151 0.3939,0.7563 0.3939 0.7563c 0.1366,0.4412 0.1366,0.9874 0.1366 0.9874c 0.0000,0.2836 -0.0315,0.4727 -0.0315 0.4727h -3.4454 c 0.0525,0.8298 0.5095,1.3130 0.5095 1.3130c 0.4569,0.4832 1.1922,0.4832 1.1922 0.4832c 0.3676,0.0000 0.6775,-0.1103 0.6775 -0.1103c 0.3099,-0.1103 0.5935,-0.2889 0.5935 -0.2889l 0.3046,0.5672 c -0.3361,0.2101 -0.7458,0.3676 -0.7458 0.3676c -0.4097,0.1576 -0.9349,0.1576 -0.9349 0.1576c -0.5147,-0.0000 -0.9611,-0.1838 -0.9611 -0.1838c -0.4464,-0.1838 -0.7773,-0.5252 -0.7773 -0.5252c -0.3309,-0.3414 -0.5200,-0.8351 -0.5200 -0.8351c -0.1891,-0.4937 -0.1891,-1.1239 -0.1891 -1.1239ZM 213.5924,584.0651 ZM 217.1639,583.6765 c 0.0000,-0.7878 -0.3309,-1.2027 -0.3309 -1.2027c -0.3309,-0.4149 -0.9296,-0.4149 -0.9296 -0.4149c -0.2731,-0.0000 -0.5200,0.1103 -0.5200 0.1103c -0.2468,0.1103 -0.4464,0.3151 -0.4464 0.3151c -0.1996,0.2048 -0.3309,0.5042 -0.3309 0.5042c -0.1313,0.2994 -0.1733,0.6880 -0.1733 0.6880h 2.7311 ZM 218.3193,586.6071 ZM 220.0420,587.0378 v 1.7227 h -0.8613 v -7.2584 h 0.7143 l 0.0735,0.5882 h 0.0315 c 0.3466,-0.2941 0.7616,-0.5042 0.7616 -0.5042c 0.4149,-0.2101 0.8666,-0.2101 0.8666 -0.2101c 0.4937,0.0000 0.8718,0.1838 0.8718 0.1838c 0.3782,0.1838 0.6303,0.5252 0.6303 0.5252c 0.2521,0.3414 0.3834,0.8193 0.3834 0.8193c 0.1313,0.4779 0.1313,1.0767 0.1313 1.0767c 0.0000,0.6513 -0.1786,1.1607 -0.1786 1.1607c -0.1786,0.5095 -0.4832,0.8666 -0.4832 0.8666c -0.3046,0.3571 -0.7038,0.5410 -0.7038 0.5410c -0.3992,0.1838 -0.8403,0.1838 -0.8403 0.1838c -0.3571,-0.0000 -0.7090,-0.1576 -0.7090 -0.1576c -0.3519,-0.1576 -0.7090,-0.4307 -0.7090 -0.4307ZM 220.0420,587.0378 ZM 220.0420,585.4727 c 0.3466,0.2941 0.6723,0.4149 0.6723 0.4149c 0.3256,0.1208 0.5777,0.1208 0.5777 0.1208c 0.3151,0.0000 0.5830,-0.1418 0.5830 -0.1418c 0.2679,-0.1418 0.4622,-0.3992 0.4622 -0.3992c 0.1943,-0.2574 0.3046,-0.6355 0.3046 -0.6355c 0.1103,-0.3782 0.1103,-0.8508 0.1103 -0.8508c 0.0000,-0.4202 -0.0735,-0.7668 -0.0735 -0.7668c -0.0735,-0.3466 -0.2363,-0.5935 -0.2363 -0.5935c -0.1628,-0.2468 -0.4202,-0.3834 -0.4202 -0.3834c -0.2574,-0.1366 -0.6145,-0.1366 -0.6145 -0.1366c -0.3256,-0.0000 -0.6565,0.1786 -0.6565 0.1786c -0.3309,0.1786 -0.7090,0.5147 -0.7090 0.5147v 2.6786 ZM 224.1492,586.6071 ZM 224.6324,584.0651 c 0.0000,-0.6408 0.1943,-1.1397 0.1943 -1.1397c 0.1943,-0.4989 0.5200,-0.8456 0.5200 -0.8456c 0.3256,-0.3466 0.7511,-0.5252 0.7511 -0.5252c 0.4254,-0.1786 0.8981,-0.1786 0.8981 -0.1786c 0.4727,0.0000 0.8981,0.1786 0.8981 0.1786c 0.4254,0.1786 0.7511,0.5252 0.7511 0.5252c 0.3256,0.3466 0.5200,0.8456 0.5200 0.8456c 0.1943,0.4989 0.1943,1.1397 0.1943 1.1397c 0.0000,0.6303 -0.1943,1.1292 -0.1943 1.1292c -0.1943,0.4989 -0.5200,0.8403 -0.5200 0.8403c -0.3256,0.3414 -0.7511,0.5200 -0.7511 0.5200c -0.4254,0.1786 -0.8981,0.1786 -0.8981 0.1786c -0.4727,-0.0000 -0.8981,-0.1786 -0.8981 -0.1786c -0.4254,-0.1786 -0.7511,-0.5200 -0.7511 -0.5200c -0.3256,-0.3414 -0.5200,-0.8403 -0.5200 -0.8403c -0.1943,-0.4989 -0.1943,-1.1292 -0.1943 -1.1292ZM 224.6324,584.0651 ZM 225.5252,584.0651 c 0.0000,0.4412 0.1050,0.7983 0.1050 0.7983c 0.1050,0.3571 0.2994,0.6145 0.2994 0.6145c 0.1943,0.2574 0.4674,0.3992 0.4674 0.3992c 0.2731,0.1418 0.5987,0.1418 0.5987 0.1418c 0.3256,0.0000 0.5987,-0.1418 0.5987 -0.1418c 0.2731,-0.1418 0.4674,-0.3992 0.4674 -0.3992c 0.1943,-0.2574 0.2994,-0.6145 0.2994 -0.6145c 0.1050,-0.3571 0.1050,-0.7983 0.1050 -0.7983c 0.0000,-0.4412 -0.1050,-0.8036 -0.1050 -0.8036c -0.1050,-0.3624 -0.2994,-0.6250 -0.2994 -0.6250c -0.1943,-0.2626 -0.4674,-0.4044 -0.4674 -0.4044c -0.2731,-0.1418 -0.5987,-0.1418 -0.5987 -0.1418c -0.3256,-0.0000 -0.5987,0.1418 -0.5987 0.1418c -0.2731,0.1418 -0.4674,0.4044 -0.4674 0.4044c -0.1943,0.2626 -0.2994,0.6250 -0.2994 0.6250c -0.1050,0.3624 -0.1050,0.8036 -0.1050 0.8036ZM 229.8424,586.6071 ZM 230.8508,582.2059 h -0.7563 v -0.6513 l 0.7983,-0.0525 l 0.1050,-1.4286 h 0.7248 v 1.4286 h 1.3761 v 0.7038 h -1.3761 v 2.8361 c 0.0000,0.4727 0.1733,0.7300 0.1733 0.7300c 0.1733,0.2574 0.6145,0.2574 0.6145 0.2574c 0.1366,0.0000 0.2941,-0.0420 0.2941 -0.0420c 0.1576,-0.0420 0.2836,-0.0945 0.2836 -0.0945l 0.1681,0.6513 c -0.2101,0.0735 -0.4569,0.1313 -0.4569 0.1313c -0.2468,0.0578 -0.4884,0.0578 -0.4884 0.0578c -0.4097,-0.0000 -0.6880,-0.1261 -0.6880 -0.1261c -0.2784,-0.1261 -0.4517,-0.3466 -0.4517 -0.3466c -0.1733,-0.2206 -0.2468,-0.5357 -0.2468 -0.5357c -0.0735,-0.3151 -0.0735,-0.6933 -0.0735 -0.6933v -2.8256 ZM 233.3929,586.6071 ZM 234.1176,585.4517 c 0.3361,0.2731 0.6880,0.4412 0.6880 0.4412c 0.3519,0.1681 0.8141,0.1681 0.8141 0.1681c 0.5042,0.0000 0.7563,-0.2311 0.7563 -0.2311c 0.2521,-0.2311 0.2521,-0.5672 0.2521 -0.5672c 0.0000,-0.1996 -0.1050,-0.3466 -0.1050 -0.3466c -0.1050,-0.1471 -0.2679,-0.2574 -0.2679 -0.2574c -0.1628,-0.1103 -0.3729,-0.1943 -0.3729 -0.1943l -0.4202,-0.1681 c -0.2731,-0.0945 -0.5462,-0.2153 -0.5462 -0.2153c -0.2731,-0.1208 -0.4884,-0.2941 -0.4884 -0.2941c -0.2153,-0.1733 -0.3519,-0.4044 -0.3519 -0.4044c -0.1366,-0.2311 -0.1366,-0.5567 -0.1366 -0.5567c 0.0000,-0.3046 0.1208,-0.5725 0.1208 -0.5725c 0.1208,-0.2679 0.3466,-0.4622 0.3466 -0.4622c 0.2258,-0.1943 0.5515,-0.3046 0.5515 -0.3046c 0.3256,-0.1103 0.7353,-0.1103 0.7353 -0.1103c 0.4832,0.0000 0.8876,0.1681 0.8876 0.1681c 0.4044,0.1681 0.6985,0.4097 0.6985 0.4097l -0.4097,0.5462 c -0.2626,-0.1996 -0.5462,-0.3256 -0.5462 -0.3256c -0.2836,-0.1261 -0.6197,-0.1261 -0.6197 -0.1261c -0.4832,-0.0000 -0.7090,0.2206 -0.7090 0.2206c -0.2258,0.2206 -0.2258,0.5147 -0.2258 0.5147c 0.0000,0.1786 0.0945,0.3099 0.0945 0.3099c 0.0945,0.1313 0.2521,0.2311 0.2521 0.2311c 0.1576,0.0998 0.3624,0.1786 0.3624 0.1786c 0.2048,0.0788 0.4254,0.1628 0.4254 0.1628c 0.2731,0.1050 0.5515,0.2206 0.5515 0.2206c 0.2784,0.1155 0.4989,0.2889 0.4989 0.2889c 0.2206,0.1733 0.3624,0.4254 0.3624 0.4254c 0.1418,0.2521 0.1418,0.6092 0.1418 0.6092c 0.0000,0.3151 -0.1208,0.5882 -0.1208 0.5882c -0.1208,0.2731 -0.3571,0.4832 -0.3571 0.4832c -0.2363,0.2101 -0.5882,0.3309 -0.5882 0.3309c -0.3519,0.1208 -0.8036,0.1208 -0.8036 0.1208c -0.5462,-0.0000 -1.0399,-0.1996 -1.0399 -0.1996c -0.4937,-0.1996 -0.8613,-0.5042 -0.8613 -0.5042Z"/></g></svg>